<mxfile host="Electron" modified="2024-04-17T18:57:47.417Z" agent="Mozilla/5.0 (Windows NT 10.0; Win64; x64) AppleWebKit/537.36 (KHTML, like Gecko) draw.io/22.1.21 Chrome/120.0.6099.109 Electron/28.1.0 Safari/537.36" etag="mH7bYl6Y4ZVGAOepC_XL" version="22.1.21" type="device">
  <diagram name="Page-1" id="6f7wbPanEzozHGWUEkWh">
    <mxGraphModel dx="2333" dy="1487" grid="1" gridSize="10" guides="1" tooltips="1" connect="1" arrows="1" fold="1" page="1" pageScale="1" pageWidth="2000" pageHeight="1125" math="0" shadow="0">
      <root>
        <mxCell id="0" />
        <mxCell id="1" parent="0" />
        <mxCell id="C9diQX66_sFre8JKbbB3-1" value="" style="group;strokeWidth=2;fontSize=26;" parent="1" vertex="1" connectable="0">
          <mxGeometry x="659" y="88" width="681.13" height="950" as="geometry" />
        </mxCell>
        <mxCell id="rgDoyKE1JFjaXjuiLnZl-1" value="start" style="ellipse;whiteSpace=wrap;html=1;fontSize=26;strokeWidth=2;" parent="C9diQX66_sFre8JKbbB3-1" vertex="1">
          <mxGeometry x="232.12193421052632" width="215.09368421052633" height="143.39622641509433" as="geometry" />
        </mxCell>
        <mxCell id="rgDoyKE1JFjaXjuiLnZl-5" value="area = (long_base + short_base)/2 * height" style="whiteSpace=wrap;html=1;fontSize=26;strokeWidth=2;" parent="C9diQX66_sFre8JKbbB3-1" vertex="1">
          <mxGeometry x="4.481118421052631" y="430.188679245283" width="672.1677631578948" height="107.54716981132076" as="geometry" />
        </mxCell>
        <mxCell id="rgDoyKE1JFjaXjuiLnZl-8" value="" style="group;strokeWidth=2;fontSize=26;" parent="C9diQX66_sFre8JKbbB3-1" vertex="1" connectable="0">
          <mxGeometry x="147.87690789473686" y="609.433962264151" width="385.37618421052633" height="107.54716981132076" as="geometry" />
        </mxCell>
        <mxCell id="rgDoyKE1JFjaXjuiLnZl-9" value="&lt;div style=&quot;font-size: 26px;&quot;&gt;area&lt;/div&gt;" style="shape=parallelogram;perimeter=parallelogramPerimeter;whiteSpace=wrap;html=1;fixedSize=1;fontSize=26;strokeWidth=2;" parent="rgDoyKE1JFjaXjuiLnZl-8" vertex="1">
          <mxGeometry width="385.37618421052633" height="107.54716981132076" as="geometry" />
        </mxCell>
        <mxCell id="rgDoyKE1JFjaXjuiLnZl-10" value="Return" style="rounded=0;whiteSpace=wrap;html=1;fontSize=20;strokeWidth=2;" parent="rgDoyKE1JFjaXjuiLnZl-8" vertex="1">
          <mxGeometry x="48.39607894736842" width="77.07523684210527" height="35.84905660377358" as="geometry" />
        </mxCell>
        <mxCell id="rgDoyKE1JFjaXjuiLnZl-11" value="" style="edgeStyle=orthogonalEdgeStyle;rounded=0;orthogonalLoop=1;jettySize=auto;html=1;strokeWidth=2;fontSize=26;" parent="C9diQX66_sFre8JKbbB3-1" source="rgDoyKE1JFjaXjuiLnZl-5" target="rgDoyKE1JFjaXjuiLnZl-9" edge="1">
          <mxGeometry relative="1" as="geometry" />
        </mxCell>
        <mxCell id="rgDoyKE1JFjaXjuiLnZl-12" value="end" style="ellipse;whiteSpace=wrap;html=1;fontSize=26;strokeWidth=2;" parent="C9diQX66_sFre8JKbbB3-1" vertex="1">
          <mxGeometry x="233.01815789473685" y="806.6037735849056" width="215.09368421052633" height="143.39622641509433" as="geometry" />
        </mxCell>
        <mxCell id="rgDoyKE1JFjaXjuiLnZl-13" style="edgeStyle=orthogonalEdgeStyle;rounded=0;orthogonalLoop=1;jettySize=auto;html=1;strokeWidth=2;fontSize=26;" parent="C9diQX66_sFre8JKbbB3-1" source="rgDoyKE1JFjaXjuiLnZl-9" target="rgDoyKE1JFjaXjuiLnZl-12" edge="1">
          <mxGeometry relative="1" as="geometry" />
        </mxCell>
        <mxCell id="ZzpeWwx-VvUuRSAxF0Vt-2" value="" style="group;strokeWidth=2;fontSize=26;" parent="C9diQX66_sFre8JKbbB3-1" vertex="1" connectable="0">
          <mxGeometry y="233.0188679245283" width="681.13" height="107.54716981132076" as="geometry" />
        </mxCell>
        <mxCell id="rgDoyKE1JFjaXjuiLnZl-2" value="&lt;div style=&quot;font-size: 26px;&quot;&gt;long_base, short_base,&amp;nbsp;&lt;span style=&quot;background-color: initial; font-size: 26px;&quot;&gt;height&lt;/span&gt;&lt;/div&gt;" style="shape=parallelogram;perimeter=parallelogramPerimeter;whiteSpace=wrap;html=1;fixedSize=1;fontSize=26;strokeWidth=2;" parent="ZzpeWwx-VvUuRSAxF0Vt-2" vertex="1">
          <mxGeometry width="681.13" height="107.54716981132076" as="geometry" />
        </mxCell>
        <mxCell id="ZzpeWwx-VvUuRSAxF0Vt-1" value="Read" style="rounded=0;whiteSpace=wrap;html=1;fontSize=20;strokeWidth=2;" parent="ZzpeWwx-VvUuRSAxF0Vt-2" vertex="1">
          <mxGeometry x="60" width="65.47" height="35.85" as="geometry" />
        </mxCell>
        <mxCell id="rgDoyKE1JFjaXjuiLnZl-3" value="" style="edgeStyle=orthogonalEdgeStyle;rounded=0;orthogonalLoop=1;jettySize=auto;html=1;strokeWidth=2;fontSize=26;" parent="C9diQX66_sFre8JKbbB3-1" source="rgDoyKE1JFjaXjuiLnZl-1" target="rgDoyKE1JFjaXjuiLnZl-2" edge="1">
          <mxGeometry relative="1" as="geometry" />
        </mxCell>
        <mxCell id="rgDoyKE1JFjaXjuiLnZl-6" value="" style="edgeStyle=orthogonalEdgeStyle;rounded=0;orthogonalLoop=1;jettySize=auto;html=1;strokeWidth=2;fontSize=26;" parent="C9diQX66_sFre8JKbbB3-1" source="rgDoyKE1JFjaXjuiLnZl-2" target="rgDoyKE1JFjaXjuiLnZl-5" edge="1">
          <mxGeometry relative="1" as="geometry" />
        </mxCell>
        <mxCell id="19tSiW72d7iKoPnJzmjI-1" value="" style="shape=image;verticalLabelPosition=bottom;labelBackgroundColor=default;verticalAlign=top;aspect=fixed;imageAspect=0;image=data:image/png,iVBORw0KGgoAAAANSUhEUgAABwMAAAFDCAYAAADWPKHkAAAAAXNSR0IArs4c6QAAAARnQU1BAACxjwv8YQUAAAAJcEhZcwAAEnQAABJ0Ad5mH3gAAKs1SURBVHhe7N2FexNZ2wbw7x8g9ZYiRYsUL+7ui7u72+Lu7iy6+KILxd3d3d2LlkIL1C3313Rn90VOm5kkTSaT+3dd9/V9+9KcTieTZDLPnPP8H4iIiIiIiIiIiIiIiIhIk1gMJCIiIiIiIiIiIiIiItIoFgOJiIiIiIiIiIiIiIiINIrFQCIiIiIiIiIiIiIiIiKNYjGQiIiIiIiIiIiIiIiISKNYDCQiIiIiIiIiIiIiIiLSKBYDiYiIiIiIiIiIiIiIiDSKxUAiIiIiIiIiIiIiIiIijWIxkIiIiIiIiIiIiIiIiEijWAwkIiIiIiIiIiIiIiIi0igWA4mIiIiIiIiIiIiIiIg0isVAIiIiIiIiIiIiIiIiIo1iMZCIiIiIiIiIiIiIiIhIo1gMJCIiIiIiIiIiIiIiItIoFgOJiIiIiIiIiIiIiIiINIrFQCIiIiIiIiIiIiIiIiKNYjGQiIiIiIiIiIiIiIiISKNYDCQiIiIiIiIiIiIiIiLSKBYDiYiIiIiIiIiIiIiIiDSKxUAiIiIiIiIiIiIiIiIijWIxkIiIiIiIiIiIiIiIiEijWAwkIiIiIiIiIiIiIiIi0igWA4mIiIiIiIiIiIiIiIg0isVAIiIiIiIiIiIiIiIiIo1iMZCIiIiIiIiIiIiIiIhIo1gMJCIiIiIiIiIiIiIiItIoFgOJiIiIiIiIiIiIiIiINIrFQCIiIiIiIiIiIiIiIiKNYjGQiIiIiIiIiIiIiIiISKNYDCQiIiIiIiIiIiIiIiLSKBYDiYiIKFXExcVh5cqVqFSpUlJmz56N4OBg6V+JiIiIiIiIiIjIGlgMJCIiIouLjIzElClTkCZNmh8ybdo06SeIiIiIiIiIiIjIGlgMJCIiIot6/fo1OnTo8EshkMVAIiIiIiIiIiIi62MxkIiIiCwiOjoaAQEB8Pf3FxYCDWExkIiIiIiIiIiIyLpYDCQiIiKz6PV63Lx5E02aNBEWAL8Pi4FERERERERERETWxWIgERERmcRQBHz48CG6du0qLPyJwmIgERERERERERGRdbEYSERERIrExMTg7NmzaNmypbDgl1JYDCQiIiIiIiIiIrIuFgOJiIjIKEMB8OrVq5gwYQL8/PyEhT45YTGQiIiIiIiIiIjIulgMJCIiol+Eh4fj1q1bWLlyJdq2bQsfHx9hcU9pWAwkIiIiIiIiIiKyLhYDiYiIHERYWBjOnz+P06dP/5Ddu3djzpw5GDVqFOrWrWvWzD9jYTGQiIiIiIiIiIjIulgMJCIichCPHz9GqVKlhEU6a4XFQCIiIiIiIiIiIutiMZCIiMhBsBhIRERERERERETkeFgMJCIichAsBhIRERERERERETkeFgOJiIgchKWKgSVKlMDSpUsxaNAg4b+nFBYDiYiIiIiIiIiIrIvFQCIiIgdhTjHQ398fEydOxN27dxEXF5c0nqGwJ/rZlMJiIBERERERERERkXWxGEhEROQg5BYDvb29Ub16dYwaNQr79u3Du3fvkJCQII3yPywGEhERERERERERqR+LgURERA7iw4cPWLRoEebMmfNfFi5ciOPHj+P06dN4+fIlQkNDhYU/ERYDiYiIiIiIiIiI1I/FQCIiIjIJi4FERERERERERETqx2IgERERmYTFQCIiIiIiIiIiIvVjMZCIiIhMwmIgERERERERERGR+rEYSERERCZhMZCIiIiIiIiIiEj9WAwkIiIik7AYSEREREREREREpH4sBhIREZFJWAwkIiIiIiIiIiJSPxYDiYiIyCQsBhIREREREREREakfi4FERERkEhYD6Vd6RH96jmdPn+Dx48d48uQl3gaFJP6vREREROTw4sLw7tlTPEk8TzScKz5++gwvPsVJ/0hERESpicVAIiIiMgmLgfQD/QecnDMC3ZpUgX82Lziny4XS9X9DjSqV0XnqFlwPl36OiIiIiBzPpz2Y1L8t6pT2Q0Y3Zzg7O8MtYx6Uqd8d45edxPsE6eeIiIgoVbAYSERERCZhMZD+E3ELKwfXQ34v8fPulqMiuh2OkH6YiIiIiBxNzP6m8E3vBp3gXDGNS07Un7APz6OlHyYiIiKLYzGQiIiITMJiICX5cgFTq3kJn+9/4+XfHNNuxUsPICIiIiJHE3+uFwpnchWeKybFyRuFOyzC+c/SA4iIiMiiWAwkIiIik7AYSDH3VqFjfmfxHd7/xiUzOuzgVR0iIiIixxaLpxu6oaCH4Hzxv+jglL0dNrxmx2kiIiJLYzGQiIiITMJioGOLub8SbXLrhM/zf3ErgFZzTuCT9BgiIiIicmD6t9g9tAoyis4b/4sz0udvirnnQ6UHERERkSWwGEhEREQmYTHQUUXi8a7xaJhV/Bz/G106fzQetR/veGM3EREREf0r+ipm1sgOT534HPK/eJTBqBNfpQcRERGRuVgMJCIiIpOwGOiIonFzfkPkcRM/v//FIztKDz8MLg5KRERERL+IvYPZ1TzE55Hfx7MMBh3gDEEiIiJLYDGQZIjAs6OLMbx1JRQsXBylypZF2e9TvipqN+iO3VwDjIjIobAY6Gi+4ty0liiSVvzcfp9MHfcm/jQRERERUTJCj2FkWXfhueQP8a6EEfuCpAcRERGRqVgMJCM+4eDw1qjo5yU+KfsvaVFx5EF84FJgREQOg8VAR/IZF//sjOJe4uf1f3FG9hqDcfiL9DAiIiIiouR83IHu+Z0E55Q/xasSxhwLkR5EREREpmAxkFIUcXYsSrsKTsREydoEfz5KkB5JRERax2Kgo4jA7RUdUUDO+UDWdtj0TnoYEREREZERCS/XoFU2wXnlz/Eoi5HHufYEERGRqVgMpOSFH8OgCunFJ2HC5MPIU+HSg4mISOtYDHQEsbi7uBH8jPUINCRzQ8y7GiE9joiIiIhInvdru6BMRp34HPP7eJbBwIPsIUhERGQKFgMpWQ8mFRGffCUbFgOJiBwJi4HaF3Z2GuplFT+XP8S9EFpt44WZX8UjKvQbIqJipf8mIiLSBn1cBL6ERSKaiwORRSTg4ZIGyCXnBjTvihi+94P0OCIi0oSEKHx+eQ8vg76C355TD4uBJPZuBwaV8RSfeCUbdzTa8FEagIiItI7FQG2LvrsMLXOIn8cfosuM+vOuIVJ6nJYkxEYjIuwbvn37hi+fPuDNi0e4feUSLl44j7OnT+LY7o1YOmsWZs2egzlz52Lu5JH4vWt39OjVB716dEfX9i3RuG5NVK1QDp1n7cWjGGlgIiIim4pDTFRE0ufbt2+hCH7/Gs8e3MTlSxdx4fxZnDpxGNvXLsLMWbMxe84czJ07CxOG9kHX7j3Ru3cv9OjWGW2bN0SdGpVRvtbvWHbqLfTSyEQmi3uFrV39xOebP8erGqZdiZIeSEREtqVHXEQYvn39gq9fE88tPr/Hq0f3cPPKeVy4eAmXzxzD/h0bsXLhTMxKPLeYM2MKJowZhv69uqJ7z17o06MLOrZtiSYNfkPV8iVRbuRhfJJGJstiMZAEonFuaCG4iU64jKTE7BfSGEREpHUsBmrYyzVoJqd3SxpX+HdajjvR0uNUTB8fi8iISERGRSL82xd8/vgOr1+9xMsXz/D4/h1cPXMIO7Ztx46dOxP/71as/3M2xo8agWGDu6NZjZIomCsz0nm4QCfcDzKStjLGX+BFKyIisjQ94mMiEBEZhajIcHwL/YSgt6/w6uVLvHj6CPduXcLJ/VuxbfsO7NyxHdu2/IVF08dg5PChGNixISoXywdfn7Rwd5axRGMyydb0TzxmNZAsIfAvNM6bDk6C4+yX+NTDgjtx0gOJiMhSEuJiEBURgcjEc4sIw01DH97i9csXePHiBZ49uo/bV07h4PZt2L4j8bvz1gBsWjEH4wZ0RKOqJVC8eHEUz5MZXi5OJn931uVuhSXXw6StIUtiMZB+EXJmIqqmFb8YjSXfuIfSKEREpHUsBmrU52MYV01mz2Cnspj3THqcWsW8xplVQ9GmQVWUKloURYsWQq4s6eFhxkVP05IbAw/w/kYiIrKcsEcH8UfPFqhTqXji51viZ1z+HMjk7SavkGLBOJWbBk7SIkuJvTUb1T3Fx9rPcSnSB9sDWYkmIrKI2Mc4sGwk2tSphvIlDN+diyJvlrRwdbLud+d0JTrijxNBXHUgFbAYSD+KvYyxJbLBXfBClJNcox9JAxERkdaxGKhBcbcxvayz8Ln7JU750GX9M6i7VdBHbGpZAFm9ZP5NqRjPoh2w+A67HxARkWXoH85DJT8feDiJP3esFx9U6h+A17xiRxajx4N5jeHnLDreBMkzAjd5/BERmektVtf1gE7nBGfRe60V4156CPa/i5e2iyyJxUD6jh5Bu3ujgE78QpQT394nYQcrhRERkQWwGKg1H7BvSA3kdBU/dz/GA8VHnlP/Z/77ALSXtdxpascJ+dotwy2udEJERBYRj/vza8FL+Jlj5XiWxoBtz8DbXcii9O+xq18ReTeq6zKjUt8teKnuO9SIiFQt6vafaJFD8B5rg3j9thhPeJNHqmAxkP7n7Xq08BW/COUmR6ft+CgNR0RE2sZioJbE4OmWASgra5lwJ+RsPAMnQ6SHqlYsHm3ohWLuor/B2nFFuQkXwBXUiIjIIr5dxvzmuUzvY2vJZGiIZY9ZhSHLS3i1DQMryFy63jkfOqy8h3DpsUREpEQ8rk8qZ/JKgZaOb9/TvMkolbAYSJI4nOufQ/gCVJKcHTbhtTQiERFpG4uB2hF3bwma5HYVPmc/xyNneYw69U16pIrpH2NJ07xwEfwN1k9aNPmbt0sREZFlRJ0fg+pZrN37Npnk7IuTXB6IUknQxmZIJzruBNFlLIeRx0KlRxIRkXxBWFZJJecVaVxQdRW/O6cWFgMpSfz18WiU103wAlSWjE3/wiveFEhE5BBYDNSI8DOYVi+r8Pn6NZ6oOP4kPksPVbWIPWjpJfobbJG8mMC2ykREZCFvF1dQx6zAxDhV/cs+zgvITr3Htt9LwkNw7IniUfJ3BARKDyUiIpluYVhO8fuqteOWpwEmX4mRtossjcVASvQaK+t5CV+ASpOu8ijsf82JvEREjoDFQC0Iw9H++WRfUPQsPhqX7OVj/tNfqOYk/jusngydsfeLtF1ERERmejA+v/jzxgYpMOYy4qTtIkoVQXvwexEP4fEnSrqGK/FSeigREcnw7QB6qKIY6Iw8zefgLCd5pxoWAwnvtg9COVk9gmQkfT3Mv8arXUREjoDFQHuXgJfbB6NSBvFz9Us8ymLYgSDpsXbgy0bUUkW/wDRI33g1HsdL20VERGSmZ1MLwknweWP9+KH3ng/SVhGlljg8Xt8HZdOLjkFBXAui7aJr7B9IRCRXcABaZRS8n1o9Hig/5gRYWUg9LAY6vCeYVjSdBZcYKYCJ10Kgl0YnIiLtYjHQvunfbEZnP3l9Ag1xKj0bj6XH2gX9dQyvVBBZPMV/j9XinB/tV9xChLRZRERE5orY2wZl8mSEm+hzx4rxKjsQ219wXiBZgf4ZltSSPzvQKV1NzLrOZpZERLLEnkP/nGroGeiFhmvfSRtFqYHFQIcWiZsLGiGz8MVnagpg4vWv0vhERKRlLAbas9dY0bEk0gueI1GccrXA/Nv2d7Ev7OEJrJnQF13aNEb9+vWTSQX4eTtBp9OlTv8l5zKYeI1LqBMRkQXpP+LmviUY1qsjWjYUfbZJKZkdHobPt8QIP6PMTLoGK/AyQdomolQWf3Ukqvs6C4/FX+OGPPVH4SJPwYiIZAk59AfG9Gz2y7lEzfLFkC97Bng4O8M5MU6p9b05KZ7odl3aIEoVLAY6sITHy9E0neiFZ06cUHXJffYMICJyACwG2q93m9sju+D5EccTlafftPPP9gQkJIij1ycgLjoC4RGRiAp5gjObZ6Ffo1LIINwXJsSlAfaw/zkREaUSveCz7Z/oE/8tFlHh4YiIjMKHu0fw14SuqO0vf3aVsfj8fkPaCiJrCMeZIQWEx6I47qg8097PYYmIrMvw/fi/cwm94VwiHnGxMYiKiEBEYkLfP8OtS6dwaOcqzBjcAYWcRe+/JsatPv7+LG0IpQoWAx1VQhAODi8HT9ELz8wUGHWGS2ERETkAFgPtU9zjNehROp3w+fk1TshcoSe2ONhKHWGP9mD8b1ktc8dj/kl4Io1LRERkUwmfcG1DP5T1FnxeKY4Tqq0LlQYmspJXS1FLwfHrmrcJppzh6lVERKlCH4/na1oruNE45aRrsByPuOJAqmIx0EGFHfkdpVOph06BkSfxTfo9RESkXSwG2iH9e+zoUwjugudGnBzotDVIerAjicXtWVXhIdwnysKbpIiISFW+HcNgfwssG+pSFQsf8IodWVsC3mzvjUJOgmNSGGdkqv8HbrJ9IBFR6ki4h1klRO+/CuOcH53XPADfrlMXi4GOKO4KRhYQvOgsFMNFr3DpVxERkXaxGGh/Pu0ciCqZ5V4AdEO20lPwWHqso3m1oT1yCPeLgmT+DZNPBEsjEhERqUDMTcyt7S3+3JIdJ+Rp+ydu8G4XsoW4yxhTRHRcJhO3PKg34iKXCyUiSg36TzjTL6v4/VdJ3Cpjzr14aVBKLSwGOhw9ni7piKKpNCswKcXn4pX024iISLtYDLQz0acx0E/8vAjjVgIDdr5NPHNwRHq8XN0MPqL9oiBORYfgKFemIiIiNYm9hmkV3YSfW/LjheqzbyFKGpLIuvR4vqYVsgmPzWTiXgNLnkkPJyIiC/qM8wOzi997lcS9NU6wFpjqWAx0NBFH0SeXBZYESSk5x+Ch9OuIiEi7WAy0J1G4Nq+xorX83SrNh8NeM9GH4NTYCmYvE+pccx1CpCGJiIjUIO7NNvQs4CT83JKf9Oh8gvOsyIaib2B2dS/BsZlcvFC67994wsOWiMiy4h7jr1ougvddhSk+F2+kISn1sBjoUIJwYFRlpBO94CyZfONxX/qNRESkXSwG2pHQzWiQWf6FPyef0mi/6dM/j3VEn49hbAVP4b5RknR9bkgDEhERqUECXgb0REHZ/daSSwHMfi8NSWQjgasbw0t4fCYTr0L4fZ8Dn98SEaWGkK1oZvYKhDoUn3wFMdKQlHpYDHQgcdfGoVgmc5cDkZGcg3GFfcSJiDSPxUB7EYxDA4vAWfB8JBfPGnNx14HX/oq5NAYFBPtFWTKg855QaUQiIiI1CMHuzhkEn1kKU2A0LsVKQxLZStgFTKut7HjOWHsGzn+THk9EROa72d3sFXV0vo0x+zy/O1sDi4GOIu4ZNnbLDyfBC87iyd4ZO3mzFRGR5rEYaB/Cjw9BpRwKbgZyzoaOByOlRzumt7MKiPeNgujydsPml7w7ioiI1OQqeqUXf27JjzvKjj6Gz9KIRLYUtLUDsgqP0+TihQaL74NtqYiILOPjmjpwE77fyo9L6TE4Gy4NSKmKxUAH8WxxzdRfHvTf5OiITa+lX0xERJrFYqAd0L/BpnZKmnm7Im+z6bgULT3eIcXiWAdvwb5REh3yd9+KN7zSREREavL5L1Q1d4lQ9/IYczIEemlIIpsKP4XhRXTiYzWZuJcejN1vecMWEZHZ9B9xcFAxuAjea5XErdF2sBZoHSwGOoKvh9HHT/xiS5XkaI8NL6XfTUREmsVioPqFHB2GEi7i50KcXOh1OEx6tIOKvolZ1TwE+0ZJnFFh/gtpQCIiInX4dmQQ/HWizy0F8W6BbV+kAYlsLgFvt3RCDtGxmmzcUbTnITj4GS8Rkfne78fgEq6C91llyTL8oTQgpTYWAzUvATfH10ded/GLLVWSoT4W3nHgRkNERA6CxUC1e4XlvynsFZy+Oy5Jj3ZUETeXoUMBF/H+kR1nNDnBORNE9K8EfHsXiOePn+FzjPQ/EVldME5OradwSUVBMg7DM2lEIlUI34SqiovcpfAHV7QiIjJL5IlByCl8j1WSbOh3lPMCrYXFQK0LXIV6XqIXWiomXUUM3vYULAcSEWkbi4Hq9vXCZFRRdA7ghSpTLjn453c87i+sClfh/lEQ5xpY/lYakogcWkzgcSwa0hxl8uZHQf8SqNKwPUZsuc+lkMj6Ik5jVAHBZ5bCpO+4n8cvqUw4jvQpBnfB8Zp8MqL21DP4Ko1ARETKPRuTQ/D+qizORX/H7ne8kdZaWAzUsvgXCBhYwXq9Av+LN36bf4MnVUREGsdioIolPMTiummFz0GySd8Iq145epO7z1hTzUm8fxTEq9ZC3I6VhiQih5XwfCvGNfWH50/vEZ756mDQhmdgxyqyqscTkP+nY1F5sqNDAKdTkfrEPl+H9rlEx2wK8SiH2Y+lAYiISKFI7GnqLn5/lR1nFO6/Fx94Umw1LAZqWOiRoSiWVvRCS/3kGnYen6TtICIibWIxUL2iL4xGcYXLJblUWoxA6fGO6xp6pxfvH9nR5ULrZXcRIY1IRI5KjxvDCsBN9D6RGI/i43E1TvpRIiuI3lUHToJjUUlci/XD9lc8cEmNQrCtZTrhcZtSCoy4BK7eTERkgoiLmFjO3H6Brqi58p00IFkDi4FaFXEZs+tnFrzIrBOPZpvxglV9IiJNYzFQpeKfYF3nvIou+DnnaojJ51i+0r9chrrm3kjlVBITeIWfiBCBLbWdxe8ThmRqgXVvpB8lSnWxuDqhpNnFQK+6y/GSK3mRSoUf7IJy2ZT1ffYs1hnLnksDEBGRbF8vzUeL3OauquOGjlelAckqWAzUpFic7p1N8AITxDkjijbKAxfRv5mTEtNxhU0DiYg0jcVAdQo72h95BPs+pWRotALPHL5+FYeX2/qhmJt4H8mOUx3sipaGJCIHFoat9VO4Wzp3ZwTwRmiylog7WNo6F3SiY1FB0ve6Lg1IpEIR17GwSVbhsZtSMnQ85OA9s4mIlIrFjellzL7JKI1bQ2zk0oJWxWKgBiW8DkDnnIIX2E9x9q2OgXM348yjtWifWyf8GZNTcAzOcoIBEZGmsRioRl9xsE8e4b5PPi6oseK99HhH9hqb2iu/gPRLCkwC288QUVIxsKGb+H3CkLzdsZXFQLKS2NvzUdNTcBwqijOqrwmRRiRSp+fL6yGt8PhNIfn749hXaQAiIpLhHRaVFryfKkyGxivxKF4akqyCxUDN+Yp9XQvCVfAC+zGuKD32LCKioxETexMzqpjb8POn5ByIY2HSJhERkSaxGKg+8U83okdhZcsjpXGpgHnPpAEcWcR+tDe3X2BiCo1KPL+ShiQiR8ZiIKnH2+XV4Cw6DpXEtToW3mcvEFI3/ZOFqOkuOH5TTHa0/usFuAIuEZFM+jPo4CF6P1UQp3zotPYxuKiOdbEYqDExV0bDX/QC+yEuyFFzIM7ESg/CK6yo5/XTz5gZj8b4O1ganoiINInFQLXR4+qgEsjsKt734rijSJeVuPffOYEDezYcGYX7SEGy1sO0U1znhIgMWAwktdDjZNMU+lfKigsKdFiBW7zbhdQu4TFW9iyD9MLjOIUU/gMfpCGIiChl8Q//QDXFN178FJeKmHWXNxlZG4uBWqK/h6n188BN9AL7IT5ovSX4u7ueYnCorYWLgWkKY8YLaXgiItIkFgNVJvY8BuUR7/fkkxmdD4RLAzi20G0t4S3cR/Kj8x+EY9+kAYnIwbEYSGrxHPMrmlsM9EDVWbd49z7ZgQS829ED+XSi4ziFuJTHjDtcq46IyLgYPN7QDYWcBe+lSuLaHEf5tmt1LAZqSNiBrsgmenH9lHQ15uHH1T0ScKKNh/BnTY8fJjyVhiciIk1iMVBN9PhwYChKuYn3e7JJ1wRb2SMlcfd9xokx5eEu2kcK4lTlL7CbEhH9g8VAUoe41wHonl8nPg5lxxsdjsVJIxKpXMQ+tFO89HsGVBm2E+yiTURkRMJTrG6aQfA+qjAl5iFQGpKsh8VArQjah5FVjb8QdXm74u+XP5/E63FlQDbhz5ue3BhxSxqeiIg0icVAFdE/wJwaGYX7PNk4ZUb5bpu5JJLBp6MYWSaFi/Yyk6HXVWlAIiIWA0kNEvBicxfkUTpL6pcUxKy30pBEqvcJa2u5C47jlKPLUger+b5MRJSyL1vQxNx+gWmcUGrKFa44YAMsBmpCPG5MKokMLqIX13fxyotaM64jRnrU94K2dzW/T84PyYFue0Kl0YmISItYDFSRW4NlrQ7wQzwrY8IZflYbxF4ajXyifaQoGdF1N+cFEtG/WAwkNQjFrk7pxcegkhQYi0uiCwlEqpSAJyt7okw6wbGcYpxRdRmr3kREKbrTC2mF76Hyo8vZFPMufJEGJGtiMVADYu6tRIf8xnsAeNdZjIdR0oN+YvlioB+6beNcAyIiLWMxUC1icWduTXgJ9neK8e2Dk7wVL8n72QXE+0hBnP17YetLNkAnon+xGEhqcAO9FBdEfo4XKo07gc/SiET2IOHddvTIq3R5XB1ytliMmxHSIERE9IugdfXgIXwPlR/nEmNwju+1NsFioL0zLAtWWUa/P+eCGHwm+St+X0+NRV7R40xOTnTazDuqiIi0jMVAlQg5iBG1fOEk2N8pxavZNvBePINYHO9sfs+DvN224C0boBPRf8Kxpa6L8P0iKSwGkjWErEMNZ8HxpyRuZTD6JFcSIHsTgX1tTZgV61QUIy7GSmMQEdEPEoJwYEgJuIrePxXEpe7WxDNlsgUWA+2aHu929pRRxMuMWuMOIkh6lEjMg7Xmf0n4IVnQdOkD8JoYEZF2sRioDhH7OyCH4s9wT9Rb/lIawcFF3cSs6l6CfaQkOpT944U0IBGRwSf8VT2F1VtYDCQr+HJ0CIo4CY4/JfFqgm28e4js0Me/asFTdEwbSeGJ96QRiIjoBx/2on8R46sTGkvO0Y+kAcnaWAy0Zwm3MKFWTrgIXlQ/JFc3bDeyYmf8+5PonlnwWJOTHpWH78ZL3lBFRKRZLAaqQTgOdMok3NcpxbNEd6y6w+Y/BhHXl6BVbifhfpIfZzQ5ppdGJCJKFH8LU8uxGEi2FIxjE2uZ3w4k42A8kUYksidxD1aiZ5l04uM6hTiXGIUzYdIgRET0n8iT/eEreN9UEvcCzTD1MvuV2AqLgXYrHvfn15LRHygzmi69B2M1uYQPJzG1TmbB401NJlQesBG3eQJFRKRZLAbaXsLLbehf0l24r1NKxqZ/IZDT9xMl4MH8KnAW7CNFcamFlW+kIYmIDKIuYVJF9gwkG4o4gxH5BceewmTsvJ9LeZF9in6MdZ3yKV5KX5elNsbsS2ltLSIix/R8XHbh+6aSZG88Fxe54oDNsBhop2JuzEHzQp7CF9X38a7/F2R9x4x+iS19i5m95u/38aq1ADe/SeMTEZHmsBhoe6+W14O3YD+nHB3Kzn8ljeDoQrGuirmzAhPPt+ouwh2uhkBE34u4gEmVWAwkG3oyUUZLEWPJic4BgeDcd7JXT+ZWMOmmL99OB1gEJyL6QST2tjS3vYYTio08iyhpRLI+FgPtUgj29Mht9O4mJ9/fMPqs3JdXBC5MqgQPwTgmx6cHDn7g1wYiIq1iMdDWviCgoYdwP6ecPBh0kdMC/3ET/X1E+0hJcqDl8nuJX42IiL7DYiDZWPSehsZbihiJS9F+2BEYJ41IZH/iTnYzbancXMNwnZeziIj+J/wSJlVI4dxWVrzQdCunBdoSi4F2KOzsFNRIL3pB/Zhs3Q8ruDAVhzsL6iGDYBzT449xl7gGMBGRVplSDBw2bBhiYtirziIiDqCL4n6/zvCtMcBoL2FHkfBiBRp4i/aTguiKYdw1FleJ6CcsBpJNxeDqxDJmL4Pt8dsycC0BsmufAtDcS3x8pxjn8ph+m4Vwu5MQhleXdmH/kRM4/zgYUSzoWpX+22Mc2nsIx888RAi/HmnO1wtz0DCb4P1SUfwx/bk0INkEi4H2Ju4MemcRvZh+jHOO37DkpfQYWeJwe25NGT0IlcQfY89yYQUiIq0ypRjYr18/REZyDpX54vFi2+8o5SHez8nHE2UH78QrfjlLFIfnW/uhhJtoPymIrga28d4nIvoZi4FkS+G38Gfr3NCJjj0FSdv9qjQgkZ2Kf4QVHQsonyWry4Gm8y6BnW/syJdzmNmgEork8kGmTJmRJW8JVGuxGDf41dMKYvFwXXfULp0PWXwyIVPm3ChWpTGmnPws/TvZvzjcmF7a7POKjBV+xxG+sdoUi4F2JQ6P/2qH3DrxC+p/8ULNP+5B6XWpbzuaWb4YeC5CGp2IiLSGxUBbeouNrXyE+zjlZEKrDW+kMRzda2xqk1mwjxSm0CQ8lEYkIvoPi4FkQ7G3/0A1d8FxpyjOqLnmkzQikb2KxuO1nZDXSXSMpxxdkRE4zwVN7IP+Gdb0r4IsP18vdc6K8l3+wIVQ6efI8mIfYE3nSsib3uXHfZ+YjOV6YtldzrDVhiAsKvXj86s8mVFz9F685Yxdm2Ix0J4Eb0bz7DrBi+mn+LTGjq/SYxRIONMJaUXjmZx0aLMjRBqdiIi0hsVAG4o8iM4m9borgikPpDEcXeR+tDN3idA0OhQefQZcB4GIfsFiINnQ+2VV4SQ67pTEvSYW3+dSAmT/Em5PQxlnwTFuNMUx45k0CKma/s44+Ce72ocXSvZYjZsmXCclI6JuYGHbwvAQ7ndDXJF/+E2w9qMB+nPobHZ7jQLouydYGpBshcVAuxGCY4MLGz+h966C8adMK8DFneiE9KIxzUiOMU+k0YmISGtYDLSdhKtD4SfYv0aTvh2O8g7nfzwfjayifaQkWeph+hkuf0NEAiwGks3ocaalq/i4kx1n5OuwAnd4ykZaEL4d9V1Fx7mxeKJRAKeU2YMXS2ulUJAyxA2+LZbiLpf2t5yY+1jePKtgX/8Yz+Z7wY8S+xf3cAFqeoqfY9lxqYqlgdKAZDMsBtqLB5NQK4+n+MX0X9KiQNetMPU7ZdzRFnATjmt6Ck59Ko1ORERaw2KgrcTj2aqm8BHs35TjjoKtloP9uv8Ruq01Mgj3k4IUHIijYdKARETfYzGQbOYZFlb+dbk2ZXFD5Zm3ECuNSGTfXmFRZSfBcW4sLig99hxXgLADn1ZWMN7LzDkDCtQaga2PoqRHkcli72JeLS8Z/ePckL3nBSRIDyN7FY2HG3ujuLnLj+cYilvSiGQ7LAbahWDs6Jxd/EL6Li4FO2HFHTM+1B7OQBnBuOYk39i70uBERKQ1LAbaSNRNLO1cxMjdr4J4lkD3VbfBr7+J9ME4MaYCPEX7SUF0FVeB8wKJSIjFQLKRuFcB6FHAlMLH9/FE62Ps80RaEYVLU6rBS3ispxQdstedgEMfpWFIvb4ewcBq2YyvpqZzR0a/SphwjiVek0Vfx+zaueD1c39GQZxyNcXsa1yWxu7pXyOgg/FZoClHh1wtA8BOxLbHYqDq6fFiY3tkF76Qvo8ryk+/Y97dFu+3oEsG0dimJ9fvp8BZ+ERE2sRioI08mY9apvQLzNwIC27xy1iSz0cwrLi5sybSwKf3ZfbAICIxFgPJJhLw4u+OyCk65pREVxAzX0tDEmlA8OmZaOirEx/vKcW1KH4/we8u9kD/ZBkaybym6ZavCaaf/yY9kmSLuo75rQvLuqHSOZ0fWv/1jN+VtCDqNAbkED/PspO+LHqvfgR2IrY9FgPV7tsJjCxt7K4+J/jWGoZj5t7Y8jbA4sXAHB034600PBERaQuLgbYRfaClaTPacvfBIS5pmSTu0gjkFe0jBXHJXhV99pnWp5mIHACLgWQTodjVLp34mJMdT+RvOAGXeP8QaYg+aA/6+TsLjnfjKTH/jTQKqV3I0QmomVH8PP4Sn/qYfz1CeiQZFX0fK1oYX7Xun2RFmw1vWAjUircLUUr4PMuPLnd7rHvKxcfVgMVAVYvExTnN4OcsfiH9L2nRaMNH899kP263eDEwT/dtJvcwJCIidWMx0BYScGNMQeG+NRr/ufxMlgTNzSfeRwriU3sKTgZLAxIR/YzFQLKJW+jjLTjelMTJD22W3WSfNNIW/QPMruQqPuaNJFOHPfgqDUPqF3F6FCqnEz+Xv8StAqZc4XpmRsXexfxaaWX0CEyMsz/6bHvFPoEa8m1XW6QXPdcK4lR6Ku6yOqwKLAaqmP7eDJR1Fb+Ivk/ayjNwyxLzbGPuYWUVc3sL/JhsrVbjKT8BiIg0R6/XY8qUKcL3/pTCYqCZ9M+xprXcOzJ/jHe7/eCeN4jFye6ZhPtISfL9fgTmLi6kT4hFVHgYwr59w7efEhYegah4fmMislssBpItfF6P32RcQ0gxrhUw3ewLDHrEx0QiPCzsl8+3b2HhiIiI4YVisrIIbG9gWjHQq+Yc3OKEFrsScWEKqsi6MUIHj+yVMJE9BJMXfR1zauWU1SMwTcay6L7uCZeC1JRIXJhYAW6i51tBMnY9nvgtPDXEITY6Qny+8S3xe3bid+roWPZA/h6LgWqV8ApbehQw3vw2azMsvWehu1gS3uFEl/Ti32NiMtaeirOfeZpPRKQlERER+OOPP+Dt7S18708pPj4+WLhwYdIYpFzc8+0YWjmDcN+mHCdUmn+fF94MIm8kfqFNK9hHSuKKWn99lAZUIgEx4UF4cuUQdmxYhnkzJmH04C5oWr0MypT5PhVQp1VPDJ0wG3+u24YDp67haVAYYlkbJLIfLAaS1ekRemQoihtdWchIMnXBERMuMejjo/H17X2c278Va5bMwbQJI/F7+wao/MPnW2KqNED7fiMx5Y/l2LjrCM7efonPkXFcTo5S3a3hucTHvJG4FumOtfejpFHIXnw7Pw210ouf05/jnr8Jpp1nP4VfGHoEtioML8E++znO6fOg1V9P+X1Ta76cx9zmfsbrEynGE1WXWWK5ZT0SYiPx+eVtnDtxELsDVmPh9AkYO2oEBnRshCo/n29UboAO/Udg1NjxmLZgFTbvOYYLNx/j9acwRDvwTbcsBqpU3PkBKGbsQ8s1M4r2OQyLfVzFvcGJnlnEv8vEuBbuglW3+IFKRGTPwsPD8fnzZ9y6dSupkOfv7y98z1cSPz8/DBo0CEeOHMGbN2+SfgcZ9+nAcFTPohPu05STEwOOcE1Lg/BrC9A0u2gfKUkejLojDSiD/ssDnA74A0ObFEcmFxNXYXDxQrbSzTF8+WHc/8zb04lUj8VAsrqPODqmMrxFx5uCOFdahg/SiMbF4cOtI1g7vTdqF0gHZzkzR36JDq7efqjSaRI2nH2Ob7ySTKnk874+yC48Bo3Eqzi6rHrCIocd+nxsAmrI7SGYuSF7CH4v+i5WtM4h3lc/R5cVrTe85k0dGhR3Yxrq5XIRP+8y41WkFaZdMfWGigREBj3EuV0rMb1/U5TJ6Q1Xk841/heda1r4lmqEfjPW4eitj4lnMo6FxUA1iryGaVU8hAfs93Ep0hfbAy14OpLwHiemN0B2M19UP0RXEjNvcnV1IiK12Lx5s/j92g5z4cIF6a9yFAm4NrqQcF8Yi2vhbryjOUkCHsyvZOadjWmQsVxv7P4kDZmchFA8OL4OU3vWR0lfL7i7usjrs2EsLm7wSJsVZdqMx4YLr8FnlUilWAwka4s8gxF5BceakjjnwG/jLsLYxMCYDzewf9kYdKzhj0ye7nA1dzaiFBc3T3j7VUP32btwK5jLepFlxTxYi96lTVsdInufw+yjaafCT49CFZkzBNO4VcSUqzy71gduQ/9Sxq9LJ8WpEHptD2SxXKNC19eCq+h5V5DsTebh8hdpQJkSvjzGkT/7o07+DEifPj28Pd3gIhjbrDi7wt0zMwrX7ISxKw7gZpBj3HDLYqDqxODatPrI7yk4SL+PLgtabf0sPcZSYhC4vS+Kmdtj4Ifkxojzlt5OIiIyFYuB9iwEG+qY1uska/PleMje+Im+Yl0VU2ZWfp/0qDR0B14l9403Lhh39y/C0FYV4OcierylokPGHP4o33w8Am58TKUeDERkMhYDydqeT0Qe0bGmIDrfRph+Krnv73pEvb2CrTP7omGJTJa5wSW5uGWGX7Eq6DznAB5/5SVmsgx98DnMa5kXzqJjzliKzsFraRyyNzG4+2czmRMfdPDIWhETHLiHYPzr7ehXTOZ3zvQl0WnVI/YI1Kw4nOvnK37uZUeHIiPOyryBNQafHp7E2gkdUb1UPmT1EI2XWtEhS8lG6DdrF+6Gavu8g8VAtfm4Cz3yGFs+yhl+zefiWoz0GAuKuDAJlSz6YvNAs03PeYcIEZFKsBhox/R3Md5fvC+MJc/vx3g3c5KbGJRVvI/kJxc6B7wTLCcShXdXNmNS+8LwED4uFZOlCnrMP4QnYVych0g1WAwkK4vZ3wRuomNNQVxKjMTJL79+liSEPcfJlcNQP5ez8HGpF2fkrT8Eq8+9Njpbkci4d9jVv5hps0t8euAsKx72K+Etjs1shrwyb9Rzz98IU899kx7sQN5uQ48Cct/nvVB99m2HW2LRoSQ8wPwanoLnXkk80XirjGmBX25g3ZDWqFIgg2AMK8YlE4rU7YVlVxVOZbQjLAaqShB29Cku4wQ+O3oeSZ11rGNv/4E66US/0/QUnnABkdL4RERkWywG2i998E50zSneF8biP+EOezgkin+xEo0yiPeR7OjKYM4TacB/hV7DpvGtUMLHxH6AloiTNwo0HImNd3jWRaQKLAaSVUXj6uRyZi/l5dV4M36cFxiPd6dWYFC9/Egr+HlrxcWnJNpN341XLMaQWRJwZ1ZF014n6Rtg6WOeTdu399g3oh7yuAmeX1GyNML8aw50O+XrjegouxCYFhVH7FfQX5bsUfSDdehWyLx+gWnSFMbUp9KAImEPcPjPIWiUx7QVkFItbgXRdtFFaLEkyGKgikQe7IiMogPwh3ihVK/tMNamxlSxN2ehurElShWGxUAiIvVgMdBe6fHu8ATUyizeF8ZS6I8gaRxHFodnW/qhpLkrIPj0xuX/rgVF4uGWEajt65S6y6UpiM6rFPqsf8xVGYhsjcVAsqbw6/izjZ/ZPXH9ZwZKAyYKuYLlPcshg87c5bUtFR0y1xyLfTylITOEBjQ0bQWHdJUwct8bnl/ZvS84OaYKssntc+pWEVOvab+HYMLTdeheWG4xxhNlBu5HiPRY0qoEPF3ZHeV8zDkHcELWqgNwWDjJNhavT05DQ8P3aFlL+NogLr6o1mcTXmrsPhAWA9Ui9jaWtDJ+8q4r1BMBgal4O9yr5ahj4WJgpm778FUanoiIbIvFQHv1FafGFDWx4JQVvU5wcS3gNTa2yijYP8riVGkqLhoWaAi7jx1T2qKUj/jnjMXZOweKlCiLStWqodr3qVgAmT3MvPDq7I/eW16xfweRLbEYSFYUd3suqpjd+98bLVY8TvzsSEDw5bUY3qCgicteuyFDnqIoVb7yj59viSntl8Hs2YtpK4/DcV6FJhPFHmxq2nK6HkXQafFFhErjkB3Th+LczAbIJrOHoHuWChh3SrtLhsYHbkWfInJnf3mgzIhjvMbrEMKxt01mwTGgJJlQY+x+vP75Lorwx9g/uzPKZRI9Rm50cHJJi8yJ5xsly0nnG1XKo1SxfMjq7Wq5G3WdfFFnzA4801CDfhYDVSJ4cwtkER10P8QN1WZdS9218r9tR1MLFwOdqq3g1HEiIpX4txjo7e2N6tWro169ev+lQ4cOmDlzJubMmaOKGLbFsE3fb6Nhmw3bbvgbHKsY+BKrG6RwUTmlOFfH4oe8jxlRB9AmrWD/KEy61qOxMOAEVvSthMyK7mJMh1LVm6DL4LnYdPIunr37jLDwCERGRiIiIuKfREYhOuobgl8/wKnNczGkU32U8xWNJSNOBdB9y1vpjyciq2MxkKzow/JKZs8KTJMmD/pOWo5dh2ejXbG0gn9PPk7Zy+G3lj0xZslOXHjwEh9CwxAeEZn4GSd9viUmMioakV+C8PLWYayZ8jta1yoJb8FYcuJZbgxO8mo0meL2cOQWHFNykqv9WjzhnVbaEP8Ox2Y0Qx6ZMwTd89TBmIMftNd24d029JS9NKgnKo49zhmBDuM+JhQQHQdKkh+99376YUZ15NP9mNO1ksxi/L9xQrZ8JVC1YTv0HjEdK3edwc3b9/Dw6Wt8lM43oqKiEJV4zhEe9gXBb57h/o0LOLF1DvrWL4lc6c1d6jQT6s25gtRp2GZ9LAaqwafjGF7C+IGZtuZMXE3t5arjj6Gtl/j3m5x8U/BCGp6IiIhMkHAdo/ILPmPlJGN7bHkjjePIXk6Ar2j/KIyuUH5k8ZT7pVkHF/ccqNB+PFbsv4bAMKVF2QSE3lmJjgU84WLK8inO+dFx/WtpLCKyKhYDyWr0ONfeXXycKYo7SvplhLvczxsnV3jnr4VeM9bj+N0PiFJ6lTwmCGdm1EdWd7mfqT/Gs+xgHGFBkJQK3oEuGcXHlNHk6I8TWrkaTIlvne+wd1R9+T0EdbnRcvlT7RQE32xEJyU9Akfux3vpoeQA3q5BQ3NvpHWuhuX/HTTxeLV7KloXSyf/5iVXT2TImh+1+y7A3svP8NmU2XkJH3FxRR/UyOdt3mxB91IYcEgbHQRZDLS5bzg5shr8jMzG03kXQr9LVrirP/YYOqUXb4PJYTGQiIjIPJEBqGZKMSiNG4p0X4O72m91YdTn7e3gI9xHqRSdF3L8NgIB98KkLTBDQhAODC2DdHL7m3wfl0LosuYRlwwlsjYWA8la9E+xsJqJqweYGOf0hdByxiG8jJG2wQyxT9ahY15Pky7SeVccht1choiU+HIUQ3OKjyejcaqClexZqTFfcHx0Zfk9BJ3zod2yu4iTHm2vEp6tQ/ciSnoE7sNn6bHkCPR4v28wSsotlCeX7OOkekAkbi9sLGNFRCk6N2Qq0xGz991HqIVKIfo3W9GzVEbzCoI5++GkBq6rsBhoY9H3l6J5NsEB9kOc4N93N95Z4/aThIvon120DWYkz3Bc09xceiIiIit6Ng9lTSoGZsJv007jo6OvEqr/iGNjK8FLuI8sH6c8HTB1200EW7K3QPwbHJ7cAL6mFARdy2PqDXu/bEFkZ1gMJCuJfbEZPQuZNrtOedxRqs8CHHr89Ydlv8wV+TAAgypmEPw+48nQ5C8ESuMQGRX7BJu65zdxWd1cGHFbGoe0Q/8F52bJ7SGYGKd86LTuMey1hVj8q63orahH4HH2CHQ477FrRC1kdxIdE/Lj3mgMNl4JwvHJvyGz4N9F8Sw/BEsPP0SIxV9genw6MxONzKl5uBVB11WPLXr+YwssBtqS/gU2tM8mPsC+j2dNLLHa1LqHmFNeJ94OU5OrFw5Z4KZ4IiIiRxVzYQyKmVQMzIm2a57a/Qmr2T4fxuDCToL9Y9noPLKhaO2x2PsqlebhRV7DvBZFTOix5IQcjWbgFG/pJbIeFgPJKvR4saEtsomOMYvGGd65yqDVvLP4lEo3+n46Mgq/+Zkww9GtMDqvuAUugkCy6D/h/ILWyO8iOJaMJgu6HEjt3j1kE/HvcGJWM+SVe9OdLjfar3tuf0uGvt2OngUV9AgccwKh0kPJgcScxsDC5vbZS4zOCS6u8pYxz5C7FOp0XYarqboSZwiODC1qVo9l53yDcCZaGs5OsRhoQ19PjkZZYycgTrnRfN41WO84e4ctndKLt8XU5OyEAH7RJSIiMlECgvf0QX7RZ6zR5EPfg9pY294ccZeGwU+4fywXt8xFUGfMHrxI5Ql4CU+Xo2EG8TakGJ03yo87jW/SOESUylgMJKv4ip1t0oqPMUtF54kcpVtj3ungVL7wHYVLE8vCVbQNRuKcuREW3+UMeJIjFk829kARV/GxlHKyoOUaNsHRLP077BvdAHll9xDMhZYr7KiH4Ju/FfQI9EalkQfBVZgd1LuFKGPSjcimxBnZawzEmksfrLL8btzjteiU15xJUFnRYdsn+7sR4DssBtpKxGmMr58TzsID67u4N8YOq9549BqbWQwkIiJSj4Q3ODSpPnKIPmONphBGXWW3uOB5+QX7xnJxz1sXkw6/s9KXggRc6p9duB3G4py7ASacjZTGIaJUxWIgWcVd9PEWHF8WSzoUa7sIl621RlzYdjT2EG2HsXiiaIcFeOjwSyGQHNFXp6KyScdZBtRfeMeKN+uT9YXi+MgqyC67h2BetP1T/T0E9U/XoGthuT0CvVB24D6ESI8lx/N1d1tkEB4blo4z8rRZauXP7nDsbu4l2Ba58UKxTktwx17XCU7EYqBN6HFnainjhcA02dBsubXvMvmArZYuBmaqixkXeB+6PYiJCsOXz5/wKTgYwQzzbz59wucvYYiKkQ4UIrKu6PtYVc/UE9aimPVKGsdhxeJkz6yCfWOZuORrh+V3rHtZ6PO+31HElN6BiXEuMwP37flWRiJ7wWIgWcPnjajnLji+LJK0KD1wOwKteU+R/jlWtTLthhfD9jZez3ksZFzs9RmoalIxMB0qDt2B56wGatwXnJtRX1EPwc5rn6i2h6ChR2AfJT0Chx9jj0CHFoELkyrCQ3h8WDCu+dFi9lmbFJ3fLK5o1lKhaTzrYMVraTA7xGKgDcQ/XoNO+Y31rdHBr9NGvLT6zfwRuDyrqGB7zIhPVQzb/oRr+KtZ1EucXTcO3Xv0RM8uDVHRPzdy52aYf+JfsSE69+yJHt3HYd3Zl3wtE1nbpyMY7Cv4fJWVwpj7XhrHUUXcxLy6GQT7xvx4FOuCZVdt0Enj82lMqGLisnCuJTB433u7XtqEyC6wGEipTo/Px0aitNwl7RTFB1WGbsEjq08mj0fg9j4obOINL+lrTcdF3odMxnxci3omFQPTwLPqNFzglCnti3+PEzObIY/sHoJ+6LD+hfrOr99uRy9FPQKPs0ego/tyFnOa55Exgcn06Lxyo+qUC7BVB9bIo73N7LWcGd1P2u/UQBYDrS4Gx7rkNLoOvrd/E8y8YotlnBLw7lhHpBdsk8lxK4wuf91ijxrVeoNtvYtZ9jlntJt0RdBjSyAvIhNZkf7pCtQ3qa9JYnTlsSxYGshBRd5YjOY5BPvGzKQt2hazztrq63IUjvX2FW6X8eiQpdosPJJGIqJUwmIgpbpPOD6hGtKJji9zosuMin1W4q6tZj8FrUdDL8F2yYlLHjT928FPfMi4hONoY2IxMI13W+wM5Hq0DkH/FnvHNlTQQzA3Wq18pp5rJW83obPsHoFpUXEUewQSEH9zKn7LZk5PPSNxckflqVdsutxy3O25KG9WT0RnVFtpv3dcsxhoZWGXpqCS0ZMOZ5SecNlGFfJYvLZ0MTAxxWexGKhOMbg2txXym3qRmXHIOOWsj0nn2HOKyFrMKgaWmIKrDr7Eb+CGJhZf5sQjb13MvmbbNaKCFxYWbpu8+GHEdd7WQZSqWAyk1BZ7C7NLW/qCXXoUa78Oz236EXEHA3xE2yYvThWW4I00EpFQ3BG0MrUYmKYQxp2LkAYi7QvF0RFVkN1FdCwIYughuOQebN2xXf9cWY/AMgP34LP0WHJsX/+uBRfhcWKJeOO3P+7YfrWxj8fQL4to++TGDZWmX1Pt0sDGsBhoTbHXMa12XngKD6T/xTVfNxyy1VxZxOHt8Qmonl68babGq1UAXvHmKfVJuIVxhVPxjg9Gs8nS47Tqm2QTaUXUvpbwErwO5URXZgauOnRfk1ic6JFZuG9MjWvedlhh5R6BIpGHOsNHsH3ykhZVJ5zil36i1MRiIKW2zxtQ16I3daZFqQE7YPtJT++xurbc/laCZGuOJXd44yKlIOEahucRHDuyUgCjz7AY6Fi+4tzMeop6CHZa+wi2uh8z/mUAeivsEfhFeiw5ujic+93U1WeMxCUfWs611cSnn4RexcT8gm2UHReUHHnCbic9sRhoNQl4v70n8jmJDqLv4lQQvbe/sem08i+3VqJrkRS+uJoQXfk5uOngMxNUKfYMemcVP2cMk1IytDvKYiCRlYRtrAqd4HUoJ05VF+KuQ79YX2BOSfG+MSmZa2DUrpc2v9vXIO76JBQXbaPc5OiArR+lwYjI8lgMpFQWf3EAsouOLZPigjzNZ+OUKlbY/IqDfbIKtlFunFF82Bn2OacUPMXiWnKXT/w5rqi7JkgahxxGwnucnK2kh2BudFj/HFa/tyKpR6CTeJt+iScqjDnBHoH0PwkPsKC2l+BYMTduKDnyJMKkX2NzX25iRmHRdsqNMwp1W4/HdnpfCIuB1vJ6PdrmlfGGnH80btt41SZ90D4MKiF3OrnMFJ2A87x5SoWeYn4lU0+CGUeNLn1RtFj9VjqGiCi1haytbnIDb++22/DakVeD/LQVbTKJ943ieORCldFHESINbWv6ZyvNnBHig65HHXraKFHqYjGQUtnjBdXgJjq2FEeHdAUbYv4NtXwmROPy1KKC7VSQQhNwVxqN6FdvsKm9t/jYkRHfkQ+kccih6N9i3/hGCnoI5kLLVVbsIfhmMzrll3t9zxuVRh0Cy9r0vaj7a9DV38L1gDTOKDJwP4JVdE1CH3rDzGJgGqSvNg5H3qrhFmHlWAy0ihBsbZFOePD8kBwt8eddFUyfi72OGVU8xNtoaopOxCXemqdCegRu7Yn8xmasMsx3cavyBx7b6+LYRHYnHrenljW5GFh6/l313IFndXp8PDoGFbzE+0ZpPGouxnM1zbL8cgHjzVreJA3yD7+silmORJrEYiClptjn2NSjkMnnBz8mCzrs+GTT1Yl+pMfb/Z2QXritMuNSBYteSMMR/eIVNppRDCw46ZE0DjmeUBwdVgW+snsI5kGbxanfQ1D/bDW6yC7ieKEsewTSL/R4uqILymayZCspZ+RtuwSPVXZzsiWKgWnStcPBQPu8MMpioBXEXpuDFnmM3Z3hikJDTkIVk+dib2JurbSCbTQjujJYzC+7KqXHq829UdGib/iMFuPk5Ydavy/BFcetLBDZQBQuTaoAV8Fr0nh0KLPwrt2uZW++Tzg0tj5yyf2ynmyckbPeWBxTy5TAf4XfwYIyou2Vn8xNl+MR13wmSh0sBlIqSni+Hv0qZTJ5GfH/4uGPtn/cgLrmievx6fxg5BBtr9zoCqD3zg/SeEQ/+4T9/U1fitZv+A0VFc/J+r7g3PS6yKqkh+Ca1OshGP9yC/oo6RE49Ch7BJJAJPa39REcM6bH078PtqvxXNfsZUIT492WxUBKzjtsaJZJfOB8F++SnbHysc07df8j9ibm1LT0GsH5MZV35qlabOgL3Lx8FscPHcIhhvk5J87j2t13iOS3HiIri8DZsWXhIvxsNRYfNF15Tx1Num0h/hrGWGLZ82ytsOG1NKaahN/Hsorm3cjjVaIHVqlhVQqZgoODMXDgQJQoUQJNmjTBzp07ER3NpU5JpVgMpFT0bV8n5JJ7ITrZOKPQwCP4Ko2pHnp8ujwSfsJtlptMqD58p82WSo+JicHLly+xe/duzJw5Ex06dEC9evVQt25d+Pn5oUyZMkn/bUiLFi0wbdo0rFmzBhcuXEj6rEtIUMm1Ic2KxK0/y5tcTM/R85Djnl/TP+I/4NSsZvCTu8qWLjc6rn9h+SLy2+3oXUju0qAeqDDmOHsEUjIeYGIh0XFjYrwqYtShd9bvmymD/t0B9PARbLOC6AoNwOE39nlXLYuBqSoOT//ugcJG70j3QfN1arrK9Bx/1rLwMqFpimD2K2l4IiIikukzDg4sCifhZ6uRZKqJMftewWFX9f28FjXkNvlPLm7+6Lj0vjqX0rRAMTCNa0G0W28fPWADAwPRuHHjX/4Gw4VTIlViMZBS0aNJBcXHlYKkrzBQpcegJYqBaeBdtj+OWHFFk2/fvmHfvn1o27YtfHzMm11hKBh269YNW7ZswcePH6XfQJYThzdH2sFbsO/lxLf933gjjUQOTHEPwdxoteq55QqCbzajs+wegWlRafQhBPHmbkrO23VonE507JgWz7pr8F4aWm3i7ixAZbNuqHJG/vZLcd1OK+ssBqamkB1on8vbyDr+XijUdD6eSQ9RhwScbGPpYmABzOaXXSIiImVCLmF+i9ym3bmcrRVWP7WfWV+WFnmkB7KL9ouSZG2LTe9Vend+1EPzi4GJyTPsqirv2PyXXq/HiRMnUKpUKeH2sxhIqsViIKWaD1hTz1N8XMmODoWHnFBtX+HQK+YXA9PoKmJhKt+QbPiMevHiBYYMGWJ2ATClGGbDHz58GJGRkdJvJvPEItCMYmCergGwj1upKPWF4PCQKvB1FR8rv8Q5L1ovum/+ufeLVehSSO4KKGlRduAufJIeSvSrBLzZOwSl3EXHj/J4lhuJQyq+jyXqwgQUFWy3/Dij1PiLKltiXT4WA1PNV1ycWQc+woPmuzgVx9hLqugU+J1YHDOjmbI4udHvmNr+TiIiInWLCzyM6U3zmDYzMH8vOG67nChcn10L6UT7RUkKjsc9aUS10b9cj6Yegm1WGJd6u1T7RcawVNqYMWPg7Z38eSmLgaRaLAZSavl8BENKyO0PlVycUWO1Wq/UxeDGnNKCbVaajOh7XRoyFbx69Qo9evRI8TPK0vH398fSpUsREcFrK+YxrxjImYH0oy84O+03BT0E86PTWtN7CMa/DECfonILgR4ozR6BZNR77BxWC9nlLnubUtIWxdjr6l7qOmxfZ+P1mhTjgaozrqVaH9DUxmJgKom9MAQFZSxNlbnZ31DfdbpYHG1j6Z6BedB9Oxt4ExERKRH9fBd65TNx9pd/f+wLlgZyNOGXsbBtQbiJ9ouCeLfdD7Xegx9/dy4qmt0vKg105Zeo7u52Qx/AgICApIueom3+PiwGkmqxGEipJOjgBNTNbu7M8DwYeVOt68WF4eQwP8E2K40XWuy1fNHMMDtv4cKFqToT0FgMn4+Gz0n2zTVVHN4cHYTCJl74ztRoMe7ZZ6soSi0JQTg9W0kPQT90WP9c+QzBt9vQS3aPQE9UGHuChUAyLuYsBhR0EhxDSpN4zI06DLVfgnj1R1mTe8b+Ew/UmHdXna1EZGAxMFUEY1OzdIKD5ce4lRyE3W/UeAIej3M9Mwm32fT4oesW3jtFRESkRPSzrWgotw/Fz3HgYqD+4R+oZ/aFUi80XKPec5fYq5NQQrjdyuJcdjKuqaSxpOGi5sGDB1G+fHnhtorCYiCpFouBlCqicHZYefNnvufohUNqXSMUoTjQJ6t4uxUlPRqteimNaRmGJUFbtmwp+F22SYcOHZJmKJJSeoRcXYJ2svut/ZiM1cfh6HtWA+kn+jfYP7Ex8snuIZgLLVc/k99D8G0AOsk+Zr1RafQRfGSPQJLj3WKUtcBNpmlcq2O56tdQjsXpXuaeY7ii5gr7rXGwGJgKvu7uhvKZU66o69yzoPIfT6RHqM/zP2vDRbDdpiczmi57aLfr6RIREdlCzPOtaMBioGLRe5vBQ7RPFMS7dE+suqfexT8iDndFZsF2K41rhYk4Fy4NaiOhoaHYsGEDSpQoIdzGlMJiIKkWi4GUKj5gSWkzb3bRZUWNkTugyvuSk7zDX3XlLoGXUjKh8dKHFumLa+gNePr0aVkz1q0dwzYZbqRJSFD3smxqow89gmHFTSsGZqrUD2uuc74ViRh6CFZFDrk9BJ3yoJWcHoIvVqKTgh6B5QaxRyDJ93VXO2QUHksK4pofrebeUv9sOf0brG2cXvw3yI4zGhyw3xtCWAy0tNhLGFXE+Ml5lrpTcVrF5w6v1rWCl2C7TU9GVB2xC8/tdUFdIiIiG4i6txyVTL1Lz2GLgXrcGl9EvE8UJFvLFXio4ruYQlfLnz2XUmxVDDQUAA0XLw2zGszpt8RiIKkWi4GUGiIOoVsWwfGkJM7+6LvrvYov2D3G2FyC7VYcyxQDDYXALVu2yFoW1PB51qJFC6xcuRLXrl1L6n37+fPn/2L4b8P/vmbNGnTr1g1+fpZYDvWf3/vnn39y2VAloq5gejVP4f40GueymHU9VP6MLnIwX3B2am0FPQTzodNfD5LtPxb/PAC9isjvEVhmCHsEkhJhOD+pMjyFx5OC5OyNo3bQzjY+cA+GlTe3NVpRTH4gDWiHWAy0qHjcnt8G+Y3dAeJSBGMuq2Q9pmQEbmxv/tIjPyV9gz9xR7VLkRAREalP8MEByC74TJWVAn2xxyGLge+wuV128T5RkHzDLkHN9/s9nlpYuN1KY41ioGG2guECqGFWxbRp01CzZk3htpgSFgNJtVgMpFQQf+8P1PISHE9K4lIJC15IA6pR3Gn0yCzYbsUxvxho+PzatGmT0ZtWDLPzli5dmnSjixJxcXFJn2OGG2NE4yrN+PHjERFhB1dj1SDmBubUMvVmpIKYfD2ExUBKXsJHnJ7dFLkV9BDstP7Zr+9Xb7ejj+wegR4oP+Y4C4GkzJczmNU8r9mrA2bssB/28OljuL5S0MwlUXX5e2HPZ2lAO8RioCVFH0O3HC7CA+V/SY9yvTbivfQQtXq3tav5U4R/jv8UXP8q/QIiIiIyQo+nKxrCTfSZKif5h+CMA94gnvDhKMZVMd67OeU4o8ZaNZ/hR+DkoAKC7VYec4qBgYGBSQW+n2OY8TBnzhx0794d1atXN2vmn7GwGEiqxWIgWVwMnm7uhSJyl59LLhk64Zia703+sAmtMwm2W3HMKwYaZgQGBASk+Blm+Lc//vjD7AKc4XfdvHkTTZo0Ef4eJWFBUCYWAym1JbzB/klNkFdBD8FWyx/8dzNiwvMN6CK7R2BaVBp9mD0CSbH4W1NR3ezP3IxoE/BRGlHN4nFjkrkrCPmg8sC/8VT166Emj8VAi3mPPQNLGr9g51QWsx+Zu1BF6vtybDhyibbfnPgOwikuWk1ERCRTAh4vN6MYWHQR7OGU3NI+HRyNOr4p9242njKY/VgaUI30n7Grey7BdiuPOcXAzZs3C8e0ZlgMJNWKOI+JFVMoBubpxmIgKZPwDOt6l0MG0fGkIB5NN0HNCwckPFuGBunE264s5hUDz5w5k+IynqVKlUr6DDIU8izFsMynYYahnCVJU4rhhhzDrENKAYuBZBWfcXBwdeSU3UMwBxpMmYmZM2eiRR75hcByg3aq+n2d1Ovb5t/MnhWYoUJ/bHhiD9WxL9hYw7Resf9LHnT++5WqVxAyhsVACwk/MxZljE4z9UGtadft4oCJfboNDeXevSI3TpWx4I66l0clIiJSDzOLgaUWwvGuMyfg+phC4v2hIBlrTbZJHz25Ej4cw4SaGYXbrjQsBhKlki8H0dtPfNwmxbselj5T/02ipCJh+9HJ3Lv3dbnRetkDFfcLjMHTLf1Q0kOw7YpjejHw4cOHqFixomDMf1K1alU8fpw6dw0ZiouHDx82q5+gYcaiYVajJQuVmsNiIFnNV5yZWkt+D0FF8UDpwUegbIFion/F4Wz/nILjSllydViPF/ZwuT/2NPpmF/8N8lMck+/Y97s/i4GWEHELy9rmhU54kPwvGRssxN3kOsKqTNzrI2jvLf47TE/iC+YyG1oTERHJY2YxsPRCvJFGchzvsbyqubMCM6HuzIuq/lIdemosSjiLtl15WAyk1KKPCMK7N6/w/PlzB8oLvH73ER+f3cDx9b1RwlN83CbFKReazD6Aiw/fIvjDG7wUjqfdvHr/CV+ieSldkdujkU90LCmIU94OWP0wShpQhfSvsa2r+Rcm/4lpxUDDEpsDBgwQjPdPDEVCQ7EwtRmbmWgshsfyMzIFLAaSNSUE48wcBT0EZcUT5cecYI9AMl38Ayz4zdT3wf+lyITbdvF+aJG+y+k74KCKT6PkYDHQAp4urIVMogPkh2RG1932010y/m1qFAPzYfjpSOk3EBERUcpYDFQs8ih6+Qr2haLkRp/DKp4WmPhV6+GianASbrvyqKEYaOiRtGnTpqT+gqJ/Tym80KlGcXi6dS4GNCmLQjkywtPT0/Hi4Q43F/Ex+0N0bnD3EDzeAZLOtzCqtBmH9efeqXiWmrp8WNsAXqLjSEGcy07FLTXv8MizGJVfvO3KY1oxcMuWLcn2CTQU2AxFOmuQ07PQWFq2bIngYC4eKMRiIFlbwhscmNIE+SyyCltaVBp7FME8CMkMUXf/QtfCKSxpLyvuaLg9TBpRzcJx7c92yC/n/DyFeNRcjtfSiPaKxUBzhWxHm4ziA+SH5BqK89+kx9iBhNe70MwiS3N8n7RotZ2T14mILGXZsmWMjBgKFvaJxUClwq7PQ32zG6AXxexX0oCqFI1j3TMLttu0uFaYYJNiYJ06dbBq1Sp8+PAh6YLn58+fUb9+feHPphQWA9Xn667WZvc0YxwlOrhlKIlhR0Kko4eSpf+IIyPKwkO4H+XHpd4WqPqSXfBa1JHbW8tolBcD3759i9q1awvGss3Sm4a+f9OnTxduj9wsXryYy4WKsBhINvEJB4fUQC6zCoJpUX7wLofsDU+WpMez5R1QIr3oGFMQ52pYourvzpL465hYO7fp11YM8SyC9vNvwk4WfUwWi4FmCceB7uWRWea6z17Z/FGlYSM0btIk6Q5oVaZxQzSoVwZ5fcy9M0CckvPfSvuOiIjM1a9fP+F7LfNjWAx0FOG4NL8NCpp7t22uIbik6mkqrzG/tE687SbEudRonEnlYqBhJkWzZs0wd+7cpOLd169fpRH+h8VAjYi5jClN8sJV8FwxjDhOyFK5H7Z8kI4hEgs6gPF1fM2cFa5D+fkvpAHVSX91EHIIt92UpEPdRfdlFwMNBbPVq1cLxvknXbt2xbdv1r/D23DTTOPGjYXbJCelSpVKtf6Gds3sYiAXZyRTfcWZKTWR3aQl/9Oi7KAjXBqULCAKB9tmEBxjypKt0RxctYdlMz8tQhHB9itKzvZY98zeS4EsBprnxWLUcBccHEyyKTQzUNp5RERkLhYD5YXFQAehf4Q/qnuK94Xs6JC/9158koZUpcjj6JNLtO2mxamM6UvGXb58GXPmzPkha9aswenTp5OKdEFBQQgPl1dpZDFQIx5MRlEL9bNkHCmZ0GZvhHQQkUj0uaEoYm6vKfcKmHhJ3VfsPmxoDG/RtpsUbzRaI/9M6P3796hbt65gnDTw9fXF2bNnpZ+0vr1795q1XOikSZMQH88FeX9gVjEwJ4af/ciZgWS68OfY/ntJuAuPr+STvs4fuGX/tQhShUeYXkx8nMlPNjRZeB32sBBizLFO5q9cUnQS7mrgjZ/FQFPF3sOKzv7mTS91wBSY8EDagUREZC4WA+WFxUAHEbYdTT0F+0FJ0lfByL1vFC0pZm0RtxeigY9g202MU6U/VXGcsBioDfrrw5FH8DwxTMpJhxY77Kinhg0ELigLnXDfyY0OORrPwTk1d+3Qh+DEmLKKL44nn3RovVf+1Pddu3YJxvgnhlWUjh49ilu3biXNbrf2spuGGYmGmYmibZOTIkWK4P79+9JolMSsYqAvBp8KYjGQTJfwDZemVVd880P29pvxThqCyCwft6JDVvFxJj8FMeRstDSgmn3C8VHmn194t9qHSGlEe8ZioIlC93SCr6fllmhylOTpe1jdPQqIiOwIi4HywmKgY0i4PBi5RPtBSXw7YesHNV/aicHDDT1RxGL9lNLAufYWmLhKqEWxGKgRYQfRp2p2uAieK4YRR4dM5bphvUPdvaLUN+xsmVaw75TEGcVGnFbF+32yvl7G/GY5zCx6fp8M6HFR3md6dHQ0Bg8eLBhDnOrVq+P48eNISLDe7UPHjh0za3bgggUL2Dvwe1wmlGwmAc/XtkPxDCZcU3bJjzaLHrEQTWYLPT8NNdMJjjEl0ZXDn0HSgGr2YTsGVPIR/w0y45y1Arru0EaPaxYDTRFyHJNqmXcQOWoK9NmDYGk3EhGReVgMlBcWAx1B4pfqv1ogq2g/KEm+cbgnjahOr7G+mbkXhH9Mtt6nVdEEncVArYhH4OqGFlzmj9F83Aug+98vECcdQSQQdRXTq5q7DLYzqq74KA2oTnG3ZqOcuUuh/pASmPZIGtyIwMBAVKlSRTBGyhk0aBDCwqxzu3NoaChatmwp3A45adCgAT59UvVC6NZldjEwlAUZMkE07qzoiQqZzJhc4pwfHVfdV8X5O9mrUJye0Qx5XQTHl5L4j8dtO3gjjD37u9k3DWeoNhaHNNLfmsVAxcJwqHduC96t5ljJ22MH7OGmASIiezB16lRGRlgMdACxj/H372XNLkCka7sfqu5aFXMQLcxdCvWH6FBu1r3EI832WAzUks84MW0AWtcoimweXEmFSSYuGZCvSkdMWHsZal65Ug2+XVmEdgVdxftRdvJixHV1X7H7uKycZa+zeDTHBpkX7gz9AIVjyMiAAQMQEZH6Zw+GWX2G2X2ibZATw6zCEydOSKOR+cXAEBYDSaEIPAwYjMqWWO5flxedNjxTxTk82aGE25haztzzCmcUG3IUX6Uh1ez+JH/B9itL3v7H1X2dQAEWAxWKurcI9dKLDwzGeHxbr8ITnjERERHJwGKgbG8D0K2Qi3g/yI43Gv8VKA2oUq+mIZ9w201NDnTfoY7btFgM1J6Yjw9w6/LZpKX0HCmnz13ExaM7sGZmC+R3Ex+3SdFlQbUhy7H5wBlcOn8GJwVjaTmnLl7H3cBwXkw3Kh73FjZGdtExpCS5+uCgqlc11ONi93TibTcxTsXH46zMK3crV64UjiE3mzZtssoSnDdu3ICvr69wG+Rk+vTpXCr0XywGklXF4eW2/ijlJTqeTIwuF1qvec7jkJT7tA6/mTsrMFMtTDhqB71T4x5hYS1zV1dwRZ31n6UB7R+LgYp8xe6OJZFeeGAwcuJTYwwOBHIRGCIiIuPMLwa+lUbSurhLI80ukqUt2QOr70RJI6pT8PaOyCbYdlPjU7E/1t1XxyJDLAaS5oTuQ7ec4uM2KZ61sOhJvPTDRMn5gl0d0ouPIdnJghojduKVmqeQxD/Botpegm03Mc65UH/cHryRcZUyPj4e48aNE48jM1WrVsWrV6+kEVOPYZlPw3Kfom2QkzZt2uDrV3uYx2EFLAaS1STg2boOKOItOpbMjFNutFzyiDMESZHYkz3Nb6+Rpzf22UELva+nJuK3LILtV5RimC5z2XF7wGKgAl+PDERBneigYOQma/WhCLivlYm1REREqcnMYmCxRVB3dyDLCZxXUrwPFCRz/bm4qubrY/r3ODS6ikV7sWVrshA3vknj2xiLgaQ54WcxpkwKM5ZzdsQmx2nsSqbSX8GA7ILjR0mc8qHzuqeIloZUo5gnf6NnYXOXLPsuzoXQY9NzWT21IiMjLdKH2xrL0sfExGDYsGHC3y8nJUqUwKNHGrqiaQ4WA8kqonFneQ+Ul90j0Bl+jVugRYsWKOAq+ndBnPOhw6p77CFIMsXiweKGyCg6lpSk6Ew8k0ZUrzhcGOQn3n4FydpgFq5p6AXGYqBcn/bj92rZ4Sw4KH6MM9JmL4RChew9BZE9nZvleyOmq4eld8KlnUpERETJ0+PpCjOKgQVG4apDTDqJxLE+OcX7QEFy9joMVZ+hfD6AfnnE225q8vx+InHvqQOLgaQ5ERcwqZKb8LhNSt7u2PpO+lmi5HxYh0ZpBcePkjiVxuSbap43osfzNc2QQbTtpsa5PGbclVeqCQ0NRePGjcXjKIihSGco1qU2c5c0NSzTS4lYDKRUF4EHm5T0CPRA2WEH8O8C/qEnJqCa3NmEujzotP4puN4AGRV1B6u7FoG76DhSkMw9TiJWGlK9nmN2SfH2y08WtN7wWlOvLRYDZYnH/fm1kVZ4UHwX7zLou+oI7n2MQPi3LwgJCbHTfENEdAw+XNuGKYUFf6dZyYrfjwZL+5WIiIhS8jagPdIJP09lJH8f7HGEj9xv1zC3fibxPpAdHSouVvcUnYRLA+Er3HZT44yqKz5Io9sei4GkOSwGktkSEHRkBMp6CI4fJUnbCntUfbfLN2xvZm4/n5+Svj0Oylz529TPn59jrSU4DcU80e+XG0MxkRKxGEipytAjcADKyO4R6IVKY47i808H1bdz01A7g+jnBdHlQpu17CFIKdM/W45m2QTHj6JkQpsAdfSdT9GnALRIL9p+BXGugqUa673CYqAM8fcXoVVuJ/FB8V2cys7EQ029637G4Y4ZhH+rOSk59YYd3D1ARERke1/PTUQBwWeprPj3xz4HKAaGXf4DLfM4i/eB7OTB8Gvq7rYRuriwYLvNSQGMvaWeE1cWA0lzWAwkswXh4NiayCw6fhTEqeJiBEojqtNDDJR7sVtmXKoth9yXl6WKgYYxDGOlths3bsDX11e4DXIybdo0aSQHF3MNs2qkFe4j4ymKaSwGUrL0eLG+I4rK7hGYFhWG7f5vRuDPQo+MR42MoscJ4pQbrZY85rFJyYo82M70m42lpC8/AH8/VftcuXi82NoHRVzEf4Pc6IpPg9YW12Yx0KhXWFRRxgWmDBUx9KyaV+E3QcJ7HJ1QG5lEf68ZKTn5EmTepEdEROTQoh9vQG1TT2AdpBj44q/G8BT9/QriXW4A9qi6wWI0TvbLJdx2U5O+4mAcSP1rlrKxGEiaw2IgmSv2OqaVlttnKpnosqHupAuqWRJa6OPfaGLuUqjfR+eLBtOuyL7mYKllQq1VDHz8+DFKlSol3AY5GTduHOLjuZggvh7HyFIp9HVNIe5FumDl9S/SQETfi8HdFd0V9Aj0RJmBBxEqPTo54adHoXI60eMFcc6PDivZQ5BE9Lg1Ko/4uFGQHO024KXaZ/noH2J2g0LGV3lMMdnQcPY1zb2WWAw04tPhMahs9G6O9Kg+6RRCpMdoRxSe/90D/s6iv9n05B9+BhHSbyAiIqLkRT/bioZu4s9To3GIYqChKbi5RTJvVB65D2/UPDHw21XMqZtRsO2mJj2qjTmIdyq6bZjFQNIcFgPJXF+2o4XsJeaSSfZGmHPB2GVmW9Ij6NBwlDb1XEcQXc5mmH9Z/nKdUVFRGDBggHAsJenXrx8iI1O/7BoYGIgqVaoIt0FOrLWdavft7ip0LmjayhIZq43GgUCud0U/i8D9zYNQRUGPwDKjjkNuWTniwhRUld1DMC86r3/GHoL0k7fY2Mrc9hppUGjsLfXPPn0yC6XMrWdkaYUNb7T3KmIxMCUJtzCllJf4gPg+2btgs7rbzJgs7PRYlHUV/M1mJG2L7bI/7IiIiBxZFIuBRnzFprqu4r9fdrKj4xb19M4TCb84HdU8RdtuanzRba+6Lg6zGEiaw2IgmevFLBQVHTsK4lR0OE6r+k7cIOwbUBhOgm03NU4lxuOKwjqNoY+eaCwlWbhwoTRa6jL18/LfsBhoEI+3R0eirLt4HxmLT/0/cFNjC4ORuWLxcvtAlJE9y9kLFcccg9K5xN/OTUUt2T0Ec6PtuhdcMpT+Ex+4G0PLy6hzpBh3NNoaJo2oVrF4uLA2vITbLz/OVf6ExtoFJmExMFnReLi0MXwEB8MP0eVE65X3NTv9Oub6bNQ0927En+M/BxqtnRIREVlU9LNtaGbq53DBfipf+tISnmJ6UcHfrigFMfG+NJwq6fFwdhnohNtuaophnspOxlgMJM1hMZDMFHe2D7KIjh0FcamxCupeBfs0BuQQb7upca2/Q/FKRPfv30eRIkWE48mJ4bGGMayBxUBLiEXgkXbwFuwfOcnebiOvadF39Hi+oROKyC4EeqPiiL0w9VbEkGMTUFNBD8GWS9lDkP7xfvvvKCd3udnk4lIdS15IA6rVt5MYX9NHvP2yo0PxaQ+lAbWFxcBk6F+uQ9vSWeAiPCD+jTOylJ+A8xo+j4q5Og2VTbxbKtmwGEhERCRL7Iu9GFklg/jz1Fh822Ltc40vDhNxGsOKmNlPyacLjqv6rq5IbKoo2G6T44b8zVciUBpdLVgMJM1hMZDM9GFLB2QTHTsKUmjCPWk0lXo9GTkF221yvEuhx375S4T+y9BDb968eeIxZWT69OmIi4uTRktdwcHBqFu3rnA75ITFQAPzioF+XQI0OVuETBGDu8u6opyFewQaE3FmFKrI7iGYD+1X3E086smxxeH8wJziY0R2nJC7+R+4Jrcpr43EXxyM3MLtlx+db2PMua7NKeAsBgqF4sSYcvAQHAw/JH01jDvyQdt3WDxdhOoWXL8/KQXG4640PBEREaUg5hU2d81n2qywzL9h8rH32u4V8fUYBptVDNQhR8u/8EoaTpXiL2Oon2jbTYxXRYw9pr55IiwGkuawGEhmev13O2QXHTty41oUfQ+ou0HHt52tkE607SYma+MFuBEuDa5QUFAQmjdvLhw3pRgeY3istTx+/BilSpUSboucDBs2DDExWl3bSq44vDajGJijw9+8wZ0SReDe34NQWUGPwLIjT0D57QpikUp7CK57mnjkk+N6gXmlBceGomRB44U3ofZFQh9MMn2m/7/J3GoDNNguMAmLgQKf93RHASfxwfB9MrXZpnh9Z7sT8jfqWboYmHcATrJftfroYxH+5RPev3mDNwzzc96+x4egcCRIhwsRWUs4To8oYWIvnZxo+9e9xBE07PUWdM8v+ttlJm0JdF12A2o+Lfl2ZTbqyl0KSE6KjMctFb6ZsxhImsNiIJklDncWN0Zm0bEjM5mrDcUWNa8QoA/CoWGl4SbYdtPihtorzCvRBAYGonHjxoKxxWnbti3evrXuHLE7d+6gYMGCwu2Rk2nTpkkjObJoPFhbHc6C/SMnOXofg8onxlCqi8WLbQNRVkGPwEpjjiNEerSlhJ2fhtrpRb9PEF0utFv3nEuGOqqve9E5q+C4UJS8GHRG5bPlom5jTjUPwbYriTMqL9XuLR8sBv4s4SZG5RMdCD/Gw78N5j1wgLfQ2INoaulioF937LDejXMkQ+TVBeheIQtcnZ0s3JOI0Ux0Ouh06VHu9/V4xPUliKwoAucnVICr6HVpNDqUWXgX36SRtCcBQadmopE5vYYy1cPMC2qeNRGOC9PrIato202M76DrqrwIwGIgaQ6LgWSOmOfYOawy0ouOHVnRIW/Hv/BQzdfsPuzBkHJpBdtuYnQlscAC1+4iIiKwcOFC+Pn5iX9PYgz/ZvgZw89a29mzZ4XbJDebN2+WRnJkITg0KLtw/8hJnknPpXHIMenxYmMXFJVdCEyLisNN7xFoTMixifJ7COrYQ9BRhZyfhloZBMeEkujK4s/UOpAtJHh7L5TwEGy7kuiKY6o22wUmYTHwB3o8/KMN/GUcNH4Dz8EhFlZgMVDzwq7Oxm/mfiAwDpWMdWbjqtrXBSDSjHCcGV3KxDuXDcVALc8MjMbzPRPQILcZy4Tm7oadwdJwaqS/jXGFBNttarI2w5/31blAEIuBpDksBpI5vt3C+gGVkUl07MiKM0qPPafq2UuRhzqbNfPxxzihUO9tsORLyrCU5o0bN7Bs2TLMmTMnKYb/3/C/2XKZzY0bNwr+fvkxFBPpNTZ3Si/cP3JSYNJjaRxyPLG4t6wLyvoo6RF4wOwegcaEnxqFykp6CC5nD0HH8gWnprdAQXfB8aAk/uNxW9WV5Hic7Gj6e/s/0cG3yVxc02a7wCQsBn4veAtaybibQperLTarvBJuMfGXMMCcO+5FydoY869xnVB1eId1TbzFzxPDJJu0aLL+vXQMEVFqC1pR1eRljHy674N2X62ReLK5jXkXEouMx001f6F5tQiVZSxdLzfp2uxRbY8HFgNJc1gMJDPoQ69jXjV38bEjK26ovdK6y1cqk4Crw/MJttvU5MHwq9pvaBAfH49x48YJ/n55KVu2LJ49eyaN5sjeYFN706+DlJ6n6m7TlGoMPQIHokom8XHxazxQZuRxi/UINCbiwhRUkd1DMB97CDoS/UPMr+kpPhZkxw2lhh212vFsktgLGJpXtO1KkgXtd2i7KRyLgf/Sv8fBMVWNL8PhUhQD9gY5zpRq/SPMq+wk3hemJnNNjN793DFmVqpd3Dn0yy54jhjGSDJ0OckTRyIridxa2+RioHONJbiv0cbXhi/kj9fXMnnfJKXkfKj5Umnw9o7ILtpuk5IOzXaqd1o3i4GkOSwGkhn0Idcx2ayZ4W5ovEvFN+DqH2NxbS/BdpuYnANxxQGam4eGhirqafhzunTpgrAwLvECvMDy+q7CfWQ8nmi++ZM0DjmOGLzYPgjl5BbbEo+TimOOwdolhbDz01FTdg/B3Gi37gWXDHUEX7ajuZfgGFASn5qYeEzN9RA93u0dgtLmzn50/w3rLdzcUx8XjajIyKSlxSMiohGXYNu9yGKgJOLsOJTN5Cw+EP6Nzgu5q8zBfQc4yfyf19jQ2oLr+BviVRp91t/V8LJldiTuPPrnFDxHDGMkns33QcOz5olUJWJ7fRN7BqaBrswMXNHsi9X8YqCu8jr13t2of43dwyogrWC7lccZ+dotxW0VrwfEYiBpDouBZAbzi4Fe6HBKvRcuou+tRpeCLoLtNiGepdF/y2uHuKB9584dFCxYULwfZMTQ55AS6W9irMmvrwIYfdb6vSLJlvR48XdXFJHdI9AbFUfuT7UegcaEnJiIWj6i7RJElwstlj9hQVDj9DeGIafo+VeS3D2w18JFMovSP8L8+rnMu1FYlxHFW6y23M3CMY+waUAHNKhUFEWLSileEb8174YpG87ghY1mWLAYaBB9F0tb5hAfCN8nQ138ccPBSlj6l1hn6WJgGieUX3APPH1SgzAcG14FGYTPE8MkE88S6LVbzWcBRNoSe3aAySfvujIzcV2zDSHMLwaWmnZDvbOcXy1Bw8LpoRNst/J4ocUedZ95sRhImsNiIJnB7GKge2OsCZQGU514XB1ZHX4egu02JTmH4LqDXMles2aNeB/IiK+vb1K/Q0oUdwztTJ4lUwBjzqu5GydZVizuLe+EMrJ7BHol9Qi09dUSQw/BKnJnCDrnRbtl7CGoXXq83dgGWUTPvZIUmoKn0oiq9GQC8oq2W0k8y2PkwQ8WKo5/w9U5deEj+j1pdPDIXhKtdtnmtmQWA5GAa6MKwkn45HyftCg77XbiTzuaj9jdK7Ngf5gXjyYb8YK3nqhD1A0saOIr4zXAMIlxyoaGc6+wmE9kRQn35qKSTvB6lBOX2hZf5kI9zC0GOqHygvuqPbcLWlXV5BmhPydL46V4ovLzLhYDSXNYDCQzmF0M9G6HLaptGnwP4/ILttmUOBVAt12OsWSjYXmx7t27i/eDjBgeaxiDEsUfR2tTi9HpO2HfW17McgwRuLNhICor6RE4wno9Ao2JvDhZQQ/BvOi07gkLgloUH4hdQ81fbSZLz5Mqbvelx8sV9cxfUSdrNxyy1Byw0N3onEXwO6S4ZS+HLgdss2y3wxcD9e+3oXMO8RPzfbyrjsMxh5wIE46rc0sI94lZKTUd19g0UDXi35zE6tGtUL3mb6hbozCyejjD2Zlh/olH1sKoUfc31KzeCqNXn8QbzfYfI1Kpt1vRMZ3gs1RW/DFHsxebI/FkcztkFf7dcpIRXfeo9Eqp/j3+bpVJsM0mJFtrrH2p/jduFgNJc1gMJHOE3sAfNT3Fx46cFJyE8yptDRd7fw6qugm2WXGc4D/woM1n4FjL/fv3UaRIEcF+kJddu3ZJIxG+BKCRicVA96pzcEO1a8yT5cTg+TYlPQK9UHHscdW9Hxl6CNZS0EOw/brnXDJUa4J2oHs+uTNbk0tWtA+w1cK3MoSfx8ymfuYtEZqYjC13WKyYH3emdwrXKXTIVLEv1j63zavNwYuB37CvY2F4Cp+Y7+OEiotVu8ZGKovD6wOdkUm4X8xI8Um4qOJ+5o4pBsHvA/H88WM8fvQIjxjm3xiOieeBeB/MCj6RTXy7gClFBZ+lslIMc99I42hOLF4emIyGuU38cuNUGSseq3OZp6jL01E3s2CblcY1C0r2PZx4xqt+LAaS5rAYSOYIu4dNg6qY/D3cu90hvFXlfSCfsG9IGRnXYIzHM1clTL3pGHcp6vV6LFiwQLgf5KRZs2b4+PGjNBrFXp+BqiYVA9Oh/MAAqPT0kSxGj5ebuqOI7KVk06LSyAM26xFoTMiJSaiVUbTdguhyoSV7CGpK7JnfkV30XCtIuvIDEPBMvZ+3sWf7wV92T09xnHPVx/gTlruL6vGMUim0+3BGkd/3Ikj6WWtz6GJg9MXRKGp02S0dstebiCsOO1c6Dq+PTEPj3E6CfWNG/IbgFIuBRERExsU+w85hVZBR9HlqNIUw5qZ2FzkPu7MMrXKJ/m4ZMRQDH6qzF/STWZZZlcGl2CAc/GAfX+dZDCTNYTGQzJHwCacm1zS5t7uhGPhajdcw4s6iX3bxNiuLN2rMvGIXN7tYwvv371G3bl3BfpCXzZs3SyORgenFwAxovPwpuFCOlsXhwfKOCnoEeqLMwH2qn6EcfmIUKivpIbj0rnr7qpMiTycXFD/PCuLbdj1eqfaAiMLx3tmF260kGerMxXVL1QJjH2FF86zC3/NP3FF3ne2WOHfcYmD4Jcxq6W/8jjTv2ph3x5HfAvX4dHER2hZwFu8fU+NcHX8FS7+CiIiIUvAF1xe1Qm7R56nR5Ef/oypdJ8wSgnajT0HR3y0jhmLgAxUWA2MuYlRRc5dySUziF/lu++znMimLgaQ5LAaSWfR4vKI5soiOHRkxFAMDVVgMDNnVyewZCoZ4lhiPaw5UkTEs8SnaD3LStm1bhIaGSiOR4bUVuL0firuK91fKyYL2WzjDUrsicHf9AIU9Ao+ppkegMREXJqGy7B6C+dCZPQQ14Cv2djW/UJZ/1A3VzhZNeLUVfYu5CrdbSXz7X7TYjR5RZ0einl8K3wG8K2DBS+mHbcBBi4EJeL62LXI4CZ6Q7+OcHVX77YNjtKNOwZsd6FfMRbyPTE4RzH0rjU9ERHYhMjISDx8+REBAAKZNm4YWLVqgXr16qF27Nnx8fFCpUqWk/zakQ4cOmDlzZtLPXrt2LekihGGJIzLNu209kE/4eWosudBh40vtLvUScQbDTS2cqbIYmIBnG3ujuLtgexUlI6qO2IXXdvTEsxhImsNiIJkpaGtHkwtnqiwGRl3Dgpa54STYXiVxytUUs045TnHLcA7dsmVL4b4wFj8/P35O/uIzLi1qiwIu4n2WcrKi71nOl9KmaDzfPhgVZPcI9ESFMcdhb+9EYRemo6aiHoIvtPs90hGEnMXUmhnEz6/suKPxVvWWvF8uqQVv4XYrSTZ0OWSp5QsTcHlwrhTOdbxRvMNiPLTh4k0OWQzUP1+DDn4yLhzl64P9vIEq8TPxCqZUchfvI5NTGDNfSeMTEZFqGfqL/P3332jQoAG8vb0F7+fy4+/vjwEDBuDgwYP49s1RFnayjOhzI+Av2KfGkxUN5lxEiFa/xenvYFIJDRUD9Q8wvVLmFPoLyIkrspToju3vpTHtBIuBpDksBpKZIo72gq/o2JERNRYDo0/2RTEze/qk8ciFimPOQMNrHvzCnFmBc+bMQVwci1c/iH+J3cMqIK1gfxlPLkx8Lo1DGpKAlwE9UFT2+1NaVBx5AHZ2qv2fzycmo6bsHoK50XLlMxYE7dTXUxNR00fwvCqJa3UsUe37Xji21jd3VqALCrRbgpvR0pBmu4fJRUW/R4ouH3rtslW3wH84YDHwNZZUktH/ziUbyi3mt7Mk0dcws4aXeD+ZnAIYeVW7PYyIiOxZQkICbt68ia5du5pdAEwuhnEN4xsu5PMihQyv/kBJwX40nkyoOmwrHkVJ42jOF6woLfq7ZUSFxcCwg93NXz7NuRD67HgNezvLYjGQNIfFQDLXk1HIJjp2ZER1xUD9W6yq5yncViXxqjwRZ9TenMuCDDflNWvWTLgvjMUwmzA4mL1ZfvHtJEbnE+8zo3Grh42fpXFIIww9AtuhVEa5Nxd6oewg9fcINMbQQ7CKgh6Cbf5kD0H7k4Bbk4uLn1PZcUWBtgtxXaXXEvQfNqN1ZtF2K0lGNF31wmLH99eLM1E3paWGnathlY1Xm3a4YmDIodGoLuMOCO8aM3FVhW1kbCL6CqZWtvTMwLzoe8heVtYmInIMhmU8DUVAU5ciMjXly5fHzp07ER1tsduxtCdiN5p6iPefseiKjMZJzV64iMWp3ik1504hhmLgwwhpHBWIv4fF7QvBVbStsuOO4oOO2eWMCRYDSXNYDCRzhWxCAzfBsSMjhmLgGxVduQ07NRn1spvZDzdDNcy67TiNAg3n5atXrxbvCyOpWLFi0tL+JPBpN3qYOlOmwBic1+wNdo4oAnfW9lfWI3D4cbvpEWhM5IVJqCJ3WVSnfOi09jFipMeSPQjHlt/MbfmVGY0W3kocSY0SELhrKMqbu+KAS02ss9i1kggc6ZlSj0Yn5GwWYPN2dI5VDIy7homlPQRPxs/JhHY7v0gPIuAdVtZK4YusScmFrtvZeJmISC1CQkIwZsyYVJsJKCeGouDx48eTZibSTxKuY1R+8X4zGo8mWP9Su4u7vFjVFD6iv9toCmPaFfV8nQ/Z0RHZdaLtlBsdcrZYhOt2ejMbi4GkOSwGkrlir2FKRdO+h7v8thGPVXPV9hkW10on3E7ZcSuKPpufQW1tEFPTq1evULVqVfH+SCGGPoFnzpyRRqFfPJyCooL9Jic5u223q37MlJJoPNsmv0egc4aCaDL3omYKgf8KvzgdtdKJ/+ZfYughuP45lwy1Gw8x0dTrB/8lN/qfVusN2x+xs0deM9trpIFb+Vl4Io1otrB96JTSTMVMv2HqKdvXmxyoGPgOu4ZVQgbRk/FD3FGg5Szc5Pzn78ThUHNLzwzMhtZrLDcNl4iITGO46/j69esmXWxIrYwcOZLLGv3iDf5uY2rz73wYcVG7l88iri5Cx2KmLGeeEV12q6PbR0LgTgwoYc6NVzpkKNEGC+7Y7/PMYiBpDouBZLZgHJrcCH4uguPHWApOxDlVTBOPxt0VbZHbnJtdXLKjSs/NeC2N6AgMS+iPHz9evD9SiOGmvoCAgKTzexKLO9zUtFUYPEqi798PwYmBWmDoEdgLRb0Ez7MgOpcsaLHyid0twS9XyMnJqCW7h2AutFr5lAVBO5DwZiPaZBE8h0qiK4clam2OGXcBA3MKtllJ3Auj0583E89ULCEStxY2RGbR75HiWnU+nqrgxeMwxcA3f1aBs+CJ+DXZ0XFbMN/YfhCF/a0s3TPQB1WGbNFwDyMiIvUzzMAzXDDw8fERvE/bNobipKFIyYsZ/4rEjaVdUcLEZTCKLrb1YhSpKPwmFjTKIvy7U44Tqi56pIIv9mE41CMfMphysVeKc7riGHzQvp9jFgNJc1gMJLPp8en4aFTwFBw/xpKuA7YFScPY0pu/0CBnWjiJtlFW3OBTayauOth1g5MnT8LX11ewP1LOnDlz2IvbiG/bG8NDsO+MJv1vmHsjUhqF7Fc8HinqEZgbXbe90fw14rDjo1BVQQ/BtkvuJu5JUq94vNo5xPwlNAtPwC21Hvyv5qK4aJuVJGsrrH1poc/MqBPoWy1Hsjeb6Lz8UHuDOrqNOkAxUI+3e4aiZi6Zd1unbYN9/Hz/STR2NTB3neFf41FrGe6pqFUPEZEjMVwomDdvnqxlQQ3Fwi5duiQVDm/dupV00f77BAUF4dy5c/jzzz/Rtm1bixUXDcscbd++ncuGSkIuzEaDrOJ9ZSyFZ76QRtGiaJzom0v4dxtL5p4nbN774tPRiagtu1eJKFlQd/oZhErj2SsWA0lzWAwkS/i4EY1NuphXBFMfSGPYSsILbPm9NDyF2ycvzvnaY8Vdx+op/eHDBzRu3Fi4P1KKYSZhRAQvsKRMj0fzq5g2MzBjK2zTbA9uRxGJO2sU9Aj0LoM+G586TNEr8vxEVJbdQzA/uv3N1d7U6wO2d8wsfu5kxxPlRh6DWpuoxVwYhSLC7VYQv2G4ZqFLTW9X/gZ30e+QkrHWFJxRyTrDGi8GJuDtoWloUVBOn8B/oiszx3JrxWpGPC4NMu0iW4rJMxbn1VEUJyJyKNHR0Zg1a5b4vfm7GHr4GYpxSi8sREZG4vDhwyZd2P85hmLl0qVLeZezQfBu9PAT7ydj8Rt8XtN9dj7/3QBpBX+3segqLESgNIZNhOxFr7xOwm2TFedMKNZxA15o4HZlFgNJc1gMJIt4ghklTLkxNy1a7LTtOqHPVzZOcbksY3HPUR5DDztW9cVwvjt9+nTh/kgpQ4YMYSFQlk84OKQEXAT70GjyjMBNLlhix2KTegRWlNkfz9mnCNr+pd2lQZMTfmE6asjtIeiUH733skKuSnGn0C2D4DlTkgw1MPHER9XOiv16bBiKOwm2W0HcGwZYpg/ox30YVj6lFRXTo9U29RRANFwMTEDw6emon9VZ8CQkH++2m/BWGoH+59X6VvAS7C+z4tUaAYE8myIisibDRQbDEkLC92Uphhl5mzZtSioamsMwo+/48eNJRUXR75EbFgQl+nuYVFS8j4wlU/O/8FLLt7W+WY02JTMqbyCepR222Ko9ZdR1LGiT37S706X4NFtr22KmBbEYSJrDYiBZRDxuTm6AAjJ7W/0vOvgPO2Oz/mafj4zHb1nlLsMnSj70O6SSW+it6NixY7JW7fg+AwYMYCFQrpArWNw2v0nFQJfaa6DhRfc1L+HGGBST2yPQNStarX2p+aVBk/P51FTU9hHvm5+jy9kMf1wOlx5JqvFhLgoJni9FydENe1S89MzXE6NQ2lmw3bLjiuqLLDMd7P6kwinUTFyRs8ZAnLX1ckTf0WgxMAr31/ZAMR83xReFvNsG4IM0Cv1Lj+drU6EYqCuLmTe0PE+BiEhdDP33DEt9pnSRoV69enj06JH0CMsICwtLWrpI6cWN72N4rGHbHbuHYBjWlhfvH2NJV2EQtjxR0Rmopek/4sjIssp7wLj5o+Oy29ZfKlT/ARubpRNvk8ykqzgMh9S6bosJWAwkzWExkCwk7vnf6Jpf+Sxyw2f/VhvcfBv3YBbKm3OBTpcdDWde1/SKBiIPHz5ExYoVxfskmXBGoDJxT7dgeK3sJvWwzDPiHBxrwVrt0D9fjS7+rsLn9dfkRKet2u8RaEzkucmoJbMgmMatMmbccrDGrir3dX935BA9V0qSfyIeS+OpkbnFQHf/9lh01fxCdvil2aiT4mvFF513BqvqPUVzxcDowKOY3dofmTyVzQj8L66/Yc1HaTD6T9DmViYtv5VyCmDkeX5gEBFZy5kzZ5Jm/Ynfk9Mk9fsz9P9LDYZZfWvWrDGrIGjYdsPf4Lj0uD3BX7hvjKcQRp7S9trccTemoJwJXwhcqiyAdTsqRuDSrPooKLcnhyBeFUbjtG1Xf7M4FgNJc1gMJIv5hkN984iPoxSTAa23W/m2/o8HMLRqTrgJt0dOsqLBwnsO06PrX4bz7+bNmwv2R/Jhj0DlvhwdigKCfWk0rqUw9BAvFNqjuJcB6F1E5lLLacug76bnDvf+k5z4l9sxpHIG8b76ITq4pquACRcipUeSbX3G2Wl1kEn4XMlPll4nbd5bPyXmFgOz1J+Bc5/MLNFF38SChmmF4/8THbLUXqa6lXw0UwyMD3uN6zunoUNZ0y8y/pMMqD3zMtjK7nuBWNsyk2BfmRsnVNvM6eRERNZg7CKD4d9SqxD4LzkzE43FcMf006dPpREdz5fEk96iJq2N74Lay59o+y5X/RMsa2DCseVUDrMtOxk2BeG4+Vd/VMli+tJpaatMxNlv0nAawmIgaQ6LgWRBUZcmoIwJF728m/4Na62GrQ8+hXkdi8NbsB3ykg3Nl96Hoy0KbyjoGZb6FO8TcaZMmZLUo5uUeTiliHB/Gotb6eE4Yu5FY7K+t9vRq5C8iSLOPsXQ9q+nDtcj0Bj96wB0L5VF1tK6nnl/wyQtfkmxN+EXMa2iu/A5kh9fdNii7nUTI86MQFGdaNvlJU/XzXht1tt6KC4ubIdCbuLxDXEr0g2r76pvTrndFwNjQp7i1LoJaFMig/I+McnFuzh6rr3PJQAM4t/i6IxmyOsq2E8WiHfvm9IvIiKi1BIfH4958+YJ34cNMRTYDEsTWYOcnoXGMmjQIIe9AKL/cBwTasi5Q/PXZO55XPPnNt8uT0cNxTPunFGoxyY8S+2rj/oQXFnaBUU9RdsgL+mrjcdxjTasYTGQNIfFQLIkfRD2DyymvNeZV0WMOZr6M5ri3hzFtMa5zeiDmwMtFt+Ao81zU3pebLihbu7cuWb39XZMMdjXWO5SkT/Gs/Em9gu0N282o1N+eYVAnVs2tHbgHoFGvd+KrrndZS2v65SrGeZd0tjyJfbm+TLUMmep7sR4VxiKna/UXRrX35+GkiYXA3UoPPgIzOm4EXp8NMpnEI39T3TpC6HBoruqvMHJDouBekR/fo4Lf09Gp2oFkNHFnKbUKcQlA/LVGYjlp5/jm8N9IsQh7O1d7JnbEzXypzNpPXXZyVAS7advw/WPjnb/HxGR9dy5cwdFiojvhLXF0puGO6D79Okj3B45MVwI2bt3rzSag4l/i03tfYX7xWiKLHKACxlv8FeDbPBQ+MXAKW0OtNiUijNjY59gSV3zVq8w9Ag8qKEegT9jMZA0h8VAsrCEW5NRykdpMcMFGfIOwMlU7M4RdmEcSppz4TGpR+BVh+sRqHTFDMPPGZbcNxQQyRTPsKCqacVA7/4PpDHILjxfhc6F5D7X2dFxyzsWAo0J3o8+eUX7TxC3SpjJHoI2E3esvRkz9P+Jb5c96l8xMfYo2qQVb7/xOKHkiGP4Kg2l2IcA9C3pKRj3f/FpuAh3VfoyUE8xMCEaX4I+4P27t3j7NjHv3uH9mye4ffEkjh7ci80Lx6BHq6aoX7sKShfOi+wZPJXfFWdKMuVAvmLl0aTfNKwN2I0jp6/hwYv3+PDhAz5+i1b/FHJ9HMKDv9uvSXmHd+/f4+3rl3h+9zKO79mOzetXY+6YvmjbvBHq1CiLwn5ZkcHT1XKzLVOKR3pky1sM5Ws2RsdBU/Dnmg0I2L4Px85fx93HL/H2feL2/rft//sb3n8IQmhkHD+0iYhSYLhgYOgpInz/TYzh32xxUcEwE7FUqVLCbZKTZs2a4eNHR+zdocet0XmF+8Ro8gzEGTUv/G8hEVf+QPNcTuJ9kEK8yw/CNvPWChFKeLcfIyulg6vJdy6mRane6/BQ41dJWQwkzWExkCzuIw6NqY6MouMpxWRDvaknzLoDXiwaD9d1g7+XzH5cguiy1MTo/Y55Id5YL+/vY/i5Xbt2JRUQyUShhzG4qLyZYj8mLVrt4tKH9iL+RQD6FJFZCPQqjb5/P2OPQJn0b3ZhaCV5K9S4eFfAJPYQtIkHk4sKnxMlKTDLHk5QX+LPhtlNrFuYXgzUv9+HYeVSLgQazm2WvJAeoEKqKAYmPP4TXTu1R9umlVHY1wc+PlLSuVmnGKUwzp4+yFOqNlp36okBI2Zh5fYzVluHX5GvRzG4S0e0a/0bSufN9L/9KiV9Wk+4mdR3yHpxcvVE+p+2+5/kQNGqzdGx10CMGjseEybtxkt+ghMR/eL+/fvJzgo0FOMeP34s/aR1GS5mLF68WLhdcmO4O9oRhe1qBk/B/jCarM2x7KEjdMLQ48mf9ZFBtA+MJFODxbhnsdp4AsJvr0XvUikUA4zEJUNeVOi0Hk8d4GljMZA0h8VASg1RFzG+jAmfK0550G2LBQ+4uE84O68V/Ey+0cUdWfyrY+hBR7yx65+b4gzL9Iv3zY/x9/fH6dOnWQg0U+jlBWiW04SVxTK3xvqX3Pd24esRDJTZI9DJpzja/fWEPQIV0gcGoHsZuT0Ea2HyWS4Zal1v8He77MLnQ34yo8Mxe7gLNQEvtvRBURPbmuXrtQtKz0D0H/ZicGkj52AuRdFvx1tVv7eooBgYjl0tvMQ70F7inht9jqltdft43BpTULy9mkxmNF3xmH0eiYi+Y7hosGDBAsF75j/p2bNn0sUFwwWJ8PBw6VHWY5jpXbt2beG2yUndunXx/v17aTQH8nIZ6niI90mKSVsW/QOeOMYyXAnPsPn3skgr2g9Gkr3xVOx7at6aHvEfr2LzxNYomU78O4zHCenyVUePZRcdpkcNi4GkOSwGUiqJvLYEbfObMBvPpRC6LT6D92bdRBuNwFMrMaR+friLfoecuGRC0frDsfme9c891SAoKAjNmzcX75ufUrVqVdy8eVN6JJkuBrcWNoOvYB+nHBcU6bcdr7gyq/olPMSf7QrIKFLp4OKRFa3WvOAqY6Z6txVdcnvIainlXKgH/n7Bkqu1JLzei1FVMwqfC3lxQraq/bHjgzSg2kWfQn8/0d9hPBnqzsNN2achcXh3ch7aFTBys4FbNpRptRFvpUeple2LgSGnMaGynRcD02RFi9VP1fVBEnwAY2pmFmyrRuNRDG1nH8ZLB1j+jIhIrtDQULRs2VL8vimI4WcNFxysdeex4fesXr1auC1yY1gyyeFE38KyrsXhJdgfKcY5Kyr13Ig30jCaF3YW42v5mXSx0it/fYzcfBtfFb4UEr48xMGF7VHYlGLtf3FBpiJNMedcqDSqY2AxkDSHxUBKRe939ET5rCYseajLiBKtZ+DAM6U3vcTh441tmNQgJ5xF48qNhy/KdFuj2j46qS0sLAz9+/cX75uf0rhxYwQGBkqPJPMEYW19E2bUpvFE/XWp2FOaLOd4HRkry7kgXZ6mmHaEPQLNFrwfveQUYZy8kavvFe5vK/lyYhKaFfAQPxey4o2q40/iox09YXdHl0ZWE2YHOuVqjJlXjBcR9F9u4e/hdVAwg5FzLicvZG/1F57Zwb6zeTHw3d+dUDaz8r4u6ooXOpxV17Mdtr8Lsgi3VaNxLoLe2wLBWiAR0f/cuHEDvr6+4vfNZOLt7Y25c+ciOto6c61fvnwpe5kkUfr164fISEfrRxCFe382Me1zPntPnHGku5sjrmF+k1wmXbh0TeuDHKWbY9jSXTj34D2+Rv96V6s+NgwfX9zGmT1rMbn7byicOwvSuYvHkxd3FOu2DFdCHe8rM4uBpDksBlIqCz4yFpV9BMeWsTi7I10WP1TpOBHrDl7Bs+BwxP7ysZOA6K/v8eTacWxfNgrtqhREjkxpzWvjkrEqhgY8TDyLcUwREREYMGCAeN/8lD59+iAkJER6JJkt+hDapBXv65RTCJOfSGOQqr1eWddIGwUdMlYbgwNvHWKNFKvQv92NYZXSCfb1j0nb6iBXcbOKBNyeUlLWjM3kkw2ddtnZDalfzmB0KRN7F/s2xcJrHxD+w4oJesRFfMLzK/uwamw7VMqdCWndjNetvOsvw3M7OdBtXAyMw4lOmYQ70b5SCgtUNgf0xbRCgu3UcJxKYvw1rt1ARPS9jRs3it8zZWTOnDmIi0v991VD0XHw4MHCbZATQz9EQ19Eh3NvDPIK9ofR6Erjj5fSGA5CH3IFi9sVlNXbIrk4Z6uCZl0GYvyU6Zg1dx7mzZuHmZPHYnjvtmhQJQdcBY9RFjdkLVYPv6+5ji+OVwdMwmIgaQ6LgZTq4vD2yGTUzW5CH7T/4o68dVuhx9BJmDpjdtLn27w50zFx9BB0b1kHpX3MGVuKVy6Uaz4Ou544ahkw8ZlKPKc2nFsL989PGT9+fFLhkCzo8VyUcxbv75Siy98PJxz3sLUrUce6I6vgOfwnrshdbzS2PWEh0NL0r7egR7msKXzP0iFn/8vszWgVXxDQyF3wHCiIS02sspclQr/z9chAFDbhPT4pvhXQqPtoTJk+C3Nnz8DUScPQo0Vt5JE729ApAwrW7oltal8b9Ds2LgZ+xoryFji5tHGcykzHNVV9piTgQk9z1gi2w7jXw3pHaapDRCRDfHw8xo0bJ37PlBHDjMKTJ09Ko6Wuffv2CbdBbjZv3iyN5EBi96KhSTPQsqDDdgf8wPx4AvO6VUJ2nWif2DiZCqFGx/HY8cAxeyf9i8VA0hwWA8kq4vB8+0S0Kp5BfJzZNM7IXqI+es07hkAHvgZvWBY/ICAgafUN8X76J9ZencNxxOHN1p4o4CTe78lGlwMNp50E52faiYiD6FY1Fzx+eS694Fe1BzY+NatZKqXkwx4MKJYZXi4/7/s0cM9bH8OPhUk/SKnrEWaU/PU5UBLn8vPwVBrNvsTj9ebO8BP8Takat+wo13YRrn6TNsNO2LYYGHcdE0vZ+RKhTrnQfP4lfJX+JHV4jtVNtTDjUkH8J8IB54UQESXL0JOkS5cu4vdMmWnbtm1S38HU9vjxY5QqVUq4DXIybNgwxMQ42kLRwdjZrzKyKL2wkSYtKo85ig+OOPss4SPOLWgJP8X7LBWTvSkWXvkArm3AYiBpEIuBZEUxLw5gXE0f8bFmk7jAv+cm3HPU6e4SQyHQ0N/az89PsI/+F0MhcM2aNVZZlcPh6F9h8+DKyCjY7ynGvTKmXeO0QHuif/E3uhbwRUZPF7i4JMbLBzmLDcCe99IPUCoKwbFR5ZE7U1q4Gva9iwcyZM+PNisfgWVYKwk7jTFlTegl/G9cCqP3lpd2PIszBtdmN0YOK938q3NNj5xt/sJTO9xhti0GRpzAgHzinWo30RXGqMtquwD5GAuqmdIc2V7jiTKDj6isIEtEZFumXlj/PoYLE9a40P7161e0adNGuA1yUrduXQQHB0ujOQo9gk+MRWUv8T5JPi7IXX8MDn2WhnFA4Q92Ylr70vCxYVEwbememLXtKt6x2fF/WAwkzWExkKxN/wmX149Eo4JpxcecNaLLilqDl+DAvc9cFi7RmTNnjBYCDf9uKBgaCoeUCr7sRZcs4n2fYjyaYrudzfYgIOHzC1w9sA6rli3Cwh2X8OIrX1fWk4DQh0ewbNFSrFx7CHc+cJazdd3HuPyC9zKZ8Sw7GTfs/n4UPV4F9IS/qUuGyowuSw2M3PUc9rrogY2XCY3G+bGlBdO47SU6ZK+3HC+kv0ZNXv/VJIX1srUVr5K9sPYu19QnIvres2fPULZsWeH7ppIsXLhQGjH1mLukacGCBXHnzh1pNAcSeQhdM4v3SYpxKYaxNxz8Ep0+Bu8vrMbgZpVQMIsZd1AqiVs+NOo0CJP/PI4XkdJ20H9YDCTNYTGQbCQh4jmO/NEN9cvkQQbRsZcKSVeyOXoMn4ENlz/Y7cUxS3v48CEqVqwo3F//xt/fH6dPn2YhMBUlXB6EHIJ9byzpaq2EHbWAIiKHp8f92ZXhKXg/M5b0pbth6VWtLOeqx6ez89G9TlFksXBR0Dm9H8o1mYT9L+37TMfGxcBE0c9xZt049OzdD/0HDceYiTOxZP1OHNi/D3v37rVe9u3HgZ2b8NefszFxeF/0+70/Bg4cmGyGj52MWZvO4JFaFxDXf8KtPfPRr1cf/D7gn20e8Hs/9B0xHUs2BmDbzj3i/WDD7Nu/H1uXTETf7r3Qt/+v+/zHDED/fn0xfNoSbLz4gdPOiYh+Yu7Sm//GWktwrly5Uvj75eb48ePSSI4kGKurugr3R8pxQa317ICSJCYIdw78iSFNSyFPtozwEu4vU6ND5pwFUKJyC/SfsRZHbr1BGFf/ShaLgaQ5LAaSTekR8foyts3ujTqFciFLeg/xcWhqXLIit39p1Go/HPMDTuNhUCRnAn4nMDAQjRs3Fu87KYbz9EuXLkmPoNTyZkkVOAv2f4rJWAmDtryRRiAishP6IOwbUAyuovc1YTyQvXQzTDmlwWsD4S9wctUINC+ZC1kzeAn+dpnRucM7Uw4Uq9UBw1edxWsNTHi1fTGQiIiILM5SxcB+/fohMjL1pzHt27dP+PvlZvPmzdJIjiV4x++okkV5/2XfXkfByWnfi0PQ7X1Y8HsdFEznDnd3N7i5uir6IuXh7g43dw94pfVF0eqtMWDaauy9/RFcCVQeFgNJc1gMJLWICMSlgGnoUjnXP59Vbm5wdXURH5eC6Dw94J74GA9PL2TIXQp1Ow3HvI3H8fgLb8kVCQoKQvPmzYX78t8YZgzeu3dPekTqMPQPP3/+fNLMw+9z69atpFU5HELca2zrVUhxMdCl+FAcdeAl9YnInn3AscV9UTN/Fng666DT6X55j3NycoKThy/KtpyIvc81/m018iUu71qEQQ38kV46B3L38IDTT/vkv7h6wtPLC56JP+OeMS8qNh+KpYfu4bOGPjZZDCQiItIgSy0Taq1ioOGCvuj3y41hZqFDCj6BcZWU3+nmUXogdr7iPfzJiQl5huvHtmLZ1EHoUK8yShXKjZw5c/6aYjXRdvAYTJ27BJsOXcKDwGCExXC/moLFQNIcFgNJjRIiEfTgIg5uXIjxfVuhVoXiyC/6fMvph9L1u2D4+OmYv2Ibjl9/grchEYjlapYpioiIwIABA8SveSn16tXD06dPpUekHsMS+oal9H/+/Ybti4qKkn5K2xJebMbgyhl/2QfGkuf3Y2AjGiKya9EfcGvfMkzq0xzVyxZBnqTP9gKo3HIQZqzYjhOPwqUfdBxxESF49/QmTu1cjQUzJmDE0KEYOnQg+nTviM49f8fg0ZMxe9Fa7Dh6EXeevUNItDZPelgMJCIi0qDQ0FCjyxPJybRp06QRU9eNGzfg6+sr3AY5sdZ2qk8EDnXJLNwnKSczWm/kVWjj9EiIi0FU+Fd8CQ1JKlj9m5Av3xAWFcdl0SyExUDSHBYDSe30CYiLiUTYl1CEhPzv8+3z51B8/RaO6HhW/pQwFALHjx8vfr1LMZybG5YQtQbDEvqibZg1a5b0E9oXsrUFsgj2QYpxKoi+B75IIxAR2bmEaIR9/YKQzyEI/RKGqDh+tifRJ37PT0hI6tmbEB+HuPh//n9HwGIgERGRBhmW/xk3bpz4S66CGJbvtAZzlzV13GIgELy6OtwE+8RYfLoc5lKhpBosBpLmsBhI5DDi4uIwZ84c8WtdStu2bZOWELWWhQsXCrdj69at0k9oXTzO9lJ6w5wO2etPgxbbZxERERmwGEhERKRRJ06cgLe3t+CLrrzUrVsX79+/l0ZLXSwGmiF4FwZUyQKdYL+kmFxDcJnT2kglWAwkzWExkMghGGYSBAQEpHjO3aVLFwQHB0uPSH0xMTEYNmyYcFsc5nPzyxEMLPhrr6yU44JyU66z3zMREWkWi4FEREQaZej1N2jQIMEXXXnZtGmT1ZZKePToEUqUKCHcDjlx6GIgwnFtWmV4CPZLiklbC3NvRktjENkWi4GkOSwGEmme4Tx5y5Yt8PHxEb/OE9O/f3+EhYVJj7COr1+/ok2bNr9si+HGO8MNeI7g0/HJqJP5x7/faJwqYtEraQAiIiINYjGQiIhIwx4+fIiKFSuKv/CmkAEDBiT1PrEWwwV90XbIjWEpJIf26k9Ucxbvm2TjnAO1hx9CqDQEkS2xGEiaw2IgkeadOXMGfn5+4td4YoYMGWLV8+l/PXv2DGXLlv1lewyfs4bPW+2LwPF++X75+43Fu+5iPOKqGUREpGEsBhIREWncjRs3FBUEDbMJrX0H8/Hjx4XbIjebN2+WRnJUr7C8trtw36QUJ9/OOBIlDUFkQywGkuawGEikaffu3Uvx/Hr8+PE2KQQanD17VrhNvXv3Tlo5RPMSrmCY369/f8rJg+7b34G1QCIi0jIWA4mIiByAoU+J4aJESssYGZbpNCx1FB1t/aUjN27cKNwmuWFBIAGvdw5ACTfx/kk+2dDvXLw0BpHtsBhImsNiIJFmGVt5Y8qUKTYtuq1cuTLZ7bJWCwBbCj0yAIV0v/79KcalBtZ+kgYgIiLSKBYDiYiIHIjhDmXDxXPDsppz5sxJypo1a5L6h8TFxUk/ZV2GixKGixPCL+YyYihiGnoOOryvO9A8rXgfJR9PlBm0G6+1f12IVM7UYuC+ffukEYhUhsVAIk0KCgpC8+bNha9rb29vzJs3z2bn1AYxMTEYNmyYcPsMRULN07/GtqFV4CP4+5NPRlQdfR7spE1ERFrHYiARERHZlGFJ0i5dugi+mMtL48aNERrKzndAJI7/XhDOgn2UYrzrY9UbaQgiGzG1GMglgkm1WAwk0hzDShvJnbMaCoFLly61aSHQ4NOnT2jQoIFwGw3L8mvem3VonunXvz3F5OyATYFcKYOIiLSPxUAiIiKyqWfPnqFs2bLiL+cyMm7cOMTH8wu8Qfyzv9G9kLNwPyUfTzTZ8lUagcg2WAwkzWExkEhTDKtrDBgwQPh6NhQCDStt2LoQaGBYAcSwPT9vo6+vb1Ifca0L2txK4azANMjQbje+SY8nIiLSMhYDiYiIyKYMdymLvpjLDZcJ/N437G6ffF/I5JKpdQA+cqlQsiEWA0lzIs5jQoUUioF5umILi4FEdsFQ5DMsrS96LRv6cRt6bquhF59hGxYsWCDczipVqiAwMFD6SY2Ke4EN7XMK//7k4pazOvqfiZEGICIi0jYWA4mIiMhmDDP6Jk2aJPxyLicOcWFDoYRbk1E1i064v5KLS4H2WHInVhqByPpYDCTNiTiN4UVTeC/O0grruUQzkeoZCoGG5T9Fs+38/Pywa9cuVRQCDd6/f4+6dev+sp2GOMKy+jEXRqBOHnfh359cfFuvwkPWAomIyEGwGEhEREQ2k9JFCzkxFBK5ROhP9O+wZ0BRuAj2V0rJ2HIb2HmRbIXFQNKe11jfOjt0guPWEBf/4TgXLf0oEamSocgXEBCQbCHw8OHDNi0EhoeHJ31+BgUF4dy5cxg2bNgv2/lvDEucRkVFSY/Uoigc7+0r/NuTjXNu9D/Lm+GIiMhxsBhIRERENnPixAnhBRY5MfQ+uXr1qjQSfS/h1iSUcBbvt2SToSUCPkkDEFkZi4GkRSGnZqJ9qYy/FARdslVAlyV3wEvQROp25syZpKLf96/f5OLv74969epZPJUqVRL+PqWZNm2a9Fdpkz54L/rkV7IyhjsKNJuGW7ynkIiIHAiLgURERGQT0dHRGDx4sODLubz069cPkZGR0mj0oyAE9K4AH5143wmjy422qx4iThqByJpYDCRt0uPjmfno2qAc8mXNiqxZfVGgVDV0WHEbWp6fQ6QFZ8+eTSrwiT577DHa/ryMw83p9eHrJP7bxcmPAcfDpMcTERE5BhYDiYiIyCbu37+PIkWKCL6cG49hVqDhIg0lL/rOTFR2E++/ZOM3EvekxxNZE4uBpHURHz7gw4cQcBIKkfo9fPgQFStWFH7u2GsuXLgg/XUaFHsYLT3Ef7c4zshUZgHYdZyIiBwNi4FERERkdYb+KgsWLBB8OZeXESNGJM0spJR8wtYU+lWJ448x13mpmqyPxcD/b+/+v/uq6zuA/wW2KeVb4BAESWXhePhWHWTtMNrKlzlSZ8UoIJZRkNmeala+bDrXota61dh9Ae2w1k5kJcVpz8Y4VgzQiNDONU5tSWPAEigSS+laTJuSJq95w1Xa5J1+TdLm5vE45/kL/bzT+/7clM9955l73wAcD7L992pqapKfOSM1lZWV0dLSks+weHb+4BNxXmLeA6a0Ku5Y9VI+GgBGD2UgADDsNm/efMS/cZ2Na21tzb8SB7LrvxfHNW89nP1TxsfEW74RLfpAhtnWrVvj6quvTnxPHjjKQAAGS/ZZNHPmzOTnzUhO9vmaza2QXvtpLL7q1OS8B8pJ7/16bMmHA8BoogwEAIbV0dwVWFpaGvX19b1fg0OxLVbWnJZ8LwfKmNMujNt/7P1l+Dz33HMxY8aM5PfjwXLZZZdFQ0NDdHd3518NAA5fR0dH1NbWJj9rRnpmzZpV2H22O37wycO6K3DsmZPixu/ZtRWA0UkZCAAMq+wxRdnjilIL9INl7ty5hf1hxpBpvSc+eN645Ps5UM689t/iV/pAhkBW2m3fvr33MWxr1qzp/Tedlfyp78PDSXbH8Je//OVYt25d790Pe/bsyf9GADiwrq6uqKurS36+FCHz5s2LvXsL+NiH1zbFso+cm5zzQDl7xnfjZde4AIxSykAAYNhkP2yZP39+cnF+sGT7t2QFAodrd2y897o4N/GeDpSS8ivjjkdezcdDWlbMz5kzJ/k9NNKS7VeY7VsIwOiSPW0ie+rEYPxiyvGapUuX5rMtlm3/cWtMSMx3wJxyaXxxoyYQgNFLGQgADJv169dHRUVFeoF+gGR3/TQ3N+dfhcO28/H420vHJt/bgXL69BWhGuFAlIEAjHSvvvpqIfcJ3DcPPfRQPtsC6dkcyz5wRnK+6ZwWl3/u8fi/fDgAjEbKQABgWOzcuTNuvvnmxOL8wMnKw8bGxvyrcKS2PfrpmDw+/R4nc1JVfPaJHflo6E8ZCMBIl/2/P/sMSH02FCHl5eXR1NSUz7Y4tj58W1wyLj3nZEreE8t+nQ8GgFFKGQgADLnsEUwrVqxIL84PkOyRTdmjm7LxHK3O+N5HKuKkxPuczJjT4sLqe+PFfDT0pQwEYKQrehk4efLkeOaZZ/LZFkTPpviHKYexH3bJBXHriufCagKA0U4ZCAAMuewRn5WVlekF+gDJisAlS5b07jPI4Njbel/M+IMxyfc7mbFvj0/9qDMfDftTBgIw0hW9DJw+fXps3749n20x7FjzmcN42sXYOOe6b8QzmkAAUAYCAEOro6MjZs+enVicD5ysCFy8eLEicND1xNOLp8bJifc8nZI4932fizWeFkqCMhCAka7oZWD2OZ19XhfGjodj1gUlybmmMv7Cj8ZXmgo0fwA4CspAAGDIZI/3XLZsWXJxfqDU1dUpAodK1y/ivlsnxgmJ9z2ZkrJ439Ln8sHwhn3LwGxvz6uvvjqqq6t/n9ra2t5/y8dL7rrrrt47JPY9xkmTJvUevzIQYHQqehm4cOHCfKZF0B1Pf+EdyXmmUxKT/m6Dx4MCQE4ZCAAMmcbGxt6SIL1A7x93BA6P7pZ7Y/p5JyfPQSqnTJob33khHwwAAMPt2XvihnecmrxW7Z+xUXHt3bFhbz4WAFAGAgBDI9snsKqqKrE4T8cegcNpT/zivo/GuYnzMFBOu2ZFbM1HAwDA8Nkeq248K3mNmsrYcz4UX9ukCQSAfSkDAYBB197eHjU1NcnFeSpZEbh8+XJF4HDqaYl7/vT05PlI5pTL4+//5zf5YAAAGB7tj9wVV52ZuD5NZfzEuOVfN0ZnPhYAeJ0yEAAYVB0dHb17hSUX54mUlZVFfX19dHd351+BYbP98ZhXdVLyvPRPSUz406/GL/OhAAAw5HY9FZ9/95ujJHl92j/j3nV3bM6HAgBvUAYCAIMmu7Ovrq4uuTBPJdtPcPXq1dHTY2v/Y6X7J/Pjygnjkuenf8ri/Us2xWv5WAAAGDod8VTd9Cgfk7ou7Z9xF82KlW3WFQCQogwEAAZFVuhld/hlj/xMLc77prKyMtauXZuP5tjpiee/dV2cfUg/ZBkTp7/9mrj75+pAAACG1u7H58bbDrEIfNPJlTFvnWtUABiIMhAAGBSNjY29d/olF+d9MnXq1Ni4cWM+kmOu+5m47y8ujVMS56p/ToiLP/bN2LQnHwsAAINt+5OxaNpZiWvRRMZdGDct2xC786EAQH/KQADgqDU3N0dVVVV6cd4nH/7wh6OtrS0fyXGj4+H487KSGJM4Z/0ytjze+5Vn84EAADCYdsfaL0yJskO5K3BceUz9+IOxJR8JAKQpAwGAo7Jly5aoqalJL877ZPbs2fHKK6/kIzne7H32m3Hd2elz1y+nXxkLf7QjHwkAAIPj1w/WxrvPHJO+Bt0v4+PM934p1nfmAwGAASkDAYAj1t7efshF4IIFC2LXrl35SI5XrzbcEZUnps9hv5xxbXx7Wz4QAACO1ksr48byxHVnIiXn3xhf3+DZ9QBwKJSBAMAR6ejoiNra2uTCfN+UlpbGkiVLoqurKx/J8e7l790Rl5yQPp/75+S47FPfj1/15AMBAOBI7dkQX5t5aZQmrzv3z4kT3hl//YgnjgDAoVIGAgCHLSv26urqkgvzfVNWVhb19fXR3d2dj2Rk6I7n/31OvH1c+rzul5PeFrestEsLAABH49VY/88fjPJDuf4cc3588pGd+TgA4FAoAwGAw5IVgdmdftkdf8nFeZ6KiopYvXp19PS4bWxk6ommz1wR55Skz+++KZnwJ3HnU+78BADgyLy86paoPGtc8lpzv4wpj/cvagpXngBweJSBAMAhy4q97E6/gxWBlZWVsXbt2nwUI9dL8fBf/XGcljjHfVMysTYe+rXiFwCAw7PnJ1+JGy8en7zG3D9nx5/dszH25uMAgEOnDAQADlljY2PvHX/pxfnrmTp1amzcuDEfwYjX+Wys+vQV8ebEue6bE/9ofjzZmY8DAICD2f1kzJ98YvLacv+cEx/6l43uCASAI6QMBAAOSVNTU1RVVSUW5m+kuro6Wltb8xEUxmvN8a25l8dbxqbP+xsZHxffvCxa/Lo2AAAH89r6+OKVZySuKftkzLlx7Vf/N3blwwCAw6cMBAAOqrm5+aBFYE1NTWzZsiUfMTRefvnlWLNmTb9kx8dQa4sVN1ZG2UELwTfFhDvWhweGAgAwoO7WWH7DW5PXkvtlzISYbo9AADhqykAA4IDa29t7i77k4jzPzJkzY+vWrfmIodPQ0JD8+xctWpS/giHV82L85+2TD7qH4Niyyrhh6YbYkw8DAIA3bI3vfuzAWw+8nrPj/Xc/bY9AABgEykAAYEBZwZcVfenF+euZPXt2vPLKK/mIobV06dLkMTz44IP5KxhyezbH6kU3xDtO6H8e9k1J+RVx230bPM4JAIB9vBSrPvHOOOcg15K9ewTe+7Q7AgFgkCgDAYCkjo6OqK2tTSzM38jtt9/e+7rhsGfPnrjzzjv7HUNpaWmsW7cufxXDozOeXzU3Kk/a/1z0zZjSy+L27/wyXstHAQAwmv0mfvyPH4i3JK4b903JKRfGTV//qV8qA4BBpAwEAPrp6uqKurq65OL8d5k/f/6wFYGZHTt2xPXXX9/vOCorK6OlpSV/FcNpy/0fjz88cf/z0Tclp741/vJHfqcbAGC02/nY38TkM8Ynrxl/n5LKmPfUb/IRAMBgUQYCAPvJisDFixf33nGXXKD/NtkefZ2dnfmI4dHW1hZTpkzpdyzTpk2Lbdu25a9iuO3++bK4eeKBfqgzJs56zx3x7RfzAQAAjD6bvhTvu+j0GJu8XsxyQky44pOxdL0iEACGgjIQAPi9np6eqK+vH7AIzP57VhRmheFwyx4FmjquOXPmxK5dHiJ0LHU1L4uPvuf8OGPc/ufmdxk/4V1x6/edIwCA0WrPf10T55w6Lnmt+KaS8phy6z9Fw5a9+asBgMGmDAQAemVF4GOPPRYVFRXJRXpWxC1ZsuSYFIGZ+++/P3lcCxYs6D12jrHt6+Lej30wLr/kvDi9JDs34+Mtl1wc559XEVNu+nysfD5/HQAAo8/mr8ZN1ZPjbWX7PlFifJx54VVx82cfjKeHb/cBABiVlIEAQK/GxsYDFoHLly8/ZkXg3r17Y968ecljy0pCjhM9u2Prph/GD3+Y54n10by5PfbkfwwAwCjW+VL89Il9rhV/myee3hF+rQ8Ahp4yEACI5ubmqKqqSpZtZWVlsXLlymN6992OHTvi+uuvTx5fQ0ND/ioAAAAAoC9lIACMcq2trVFdXZ0s2rI7BVetWnXMH8PZ0tISlZWV/Y7vggsuiJ/97Gf5qwAAAACAvpSBADCKtbe3R01NTb+SLUtWBK5evfq42I/vgQceSB7jlClToq2tLX8VAAAAANCXMhAARqmOjo6ora1NlmwXXXRR7x4ex4POzs647bbbkseZPTo0e4QoAAAAAJCmDASAUSgrAufPn58s2LLHca5duzZ/5bG3cePGmDhxYvJYszJz9+7d+SsBAAAAgL6UgQAwynR1dUVdXV2yXKuqqoqmpqb8lcMveyRpdqfftm3b4oUXXohHH300ZsyYkTzWLIsWLcpHAgAAAAApykAAGEWysq2+vj5KS0uT5VrfTJo0Kaqrqwc92ddN/X2Hm2wvQQAAAABgYMpAABglsiJw5cqVUVZWlizWRmKefPLJfHYAAAAAQIoyEABGicbGxqioqEiWaiMx2d6GLS0t+ewAAAAAgBRlIACMAs3Nzb37AaZKtZGaadOm9e4tCAAAAAAMTBkIAAXX2trau09fqlAbyZk1a1bs2rUrnyUAAAAAkKIMBIACa29vj5qammSZNtKzYMGC3n0QAQAAAICBKQMBoKA6OjqitrY2WaQVIUuXLs1nCgAAAAAMRBkIAAXU1dUVdXV1yRKtKGloaMhnCwAAAAAMRBkIAAX04osvxlVXXZUs0YqQ8vLyaGpqymcLAAAAAAxEGQgABdTS0hKVlZXJIq0ImTJlSrS1teWzBQAAAAAGogwEgAIqehk4ffr02L59ez5bAAAAAGAgykAAKKCil4G1tbWxe/fufLYAAAAAwECUgQBQQEUvAxcuXJjPFAAAAAA4EGUgABRQ0cvABx54IJ8pAAAAAHAgykAAAAAAAAAoKGUgAAAAAAAAFJQyEAAAAAAAAApKGQgAAAAAAAAFpQwEAAAAAACAglIGAgAAAAAAQEEpAwEAAAAAAKCglIEAAAAAAABQUMpAAAAAAAAAKChlIAAAAAAAABSUMhAAAAAAAAAKShkIAAAAAAAABaUMBAAAAAAAgIJSBgIAAAAAAEBBKQMBAAAAAACgoJSBAAAAAAAAUFDKQAAAAAAAACgoZSAAAAAAAAAUlDIQAAAAAAAACkoZCAAAAAAAAAWlDAQAAAAAAICCUgYCAAAAAABAQSkDAQAAAAAAoKCUgQAAAAAAAFBQykAAAAAAAAAoKGUgAAAAAAAAFJQyEAAAAAAAAApKGQgAAAAAAAAFpQwEAAAAAACAglIGAgAAAAAAQEEpAwEAAAAAAKCglIEAAAAAAABQUMpAAAAAAAAAKKSI/wcsWImWKPPZQQAAAABJRU5ErkJggg==;strokeWidth=2;" parent="1" vertex="1">
          <mxGeometry x="20" y="1020" width="472.37" height="85" as="geometry" />
        </mxCell>
      </root>
    </mxGraphModel>
  </diagram>
</mxfile>
